<svg width="12" height="14" viewBox="0 0 12 14" fill="none" xmlns="http://www.w3.org/2000/svg">
<path d="M11.8758 6.91958C10.6095 7.24685 9.04238 7.72238 8.1039 8.68068C6.95706 9.84782 6.53587 11.627 6.16048 13.4008C6.15376 13.4366 6.13483 13.4689 6.10696 13.4922C6.07908 13.5154 6.04401 13.5282 6.00781 13.5282C5.9716 13.5282 5.93653 13.5154 5.90865 13.4922C5.88078 13.4689 5.86185 13.4366 5.85513 13.4008C5.55338 11.9796 5.16362 10.2727 4.34548 9.21769C3.30462 7.87516 1.70156 7.3255 0.124553 6.91958C0.0892739 6.91188 0.0576777 6.89225 0.0350178 6.86396C0.0123579 6.83567 0 6.80042 0 6.76408C0 6.72774 0.0123579 6.69249 0.0350178 6.6642C0.0576777 6.63591 0.0892739 6.61629 0.124553 6.60858C1.50129 6.25329 3.0783 5.78228 4.06259 4.69289C5.08908 3.55649 5.4995 1.7755 5.85154 0.127401C5.85826 0.0915838 5.87718 0.059252 5.90506 0.0359907C5.93293 0.0127293 5.968 0 6.00421 0C6.04042 0 6.07549 0.0127293 6.10337 0.0359907C6.13124 0.059252 6.15017 0.0915838 6.15688 0.127401C6.48468 1.67605 7.04238 3.43534 7.97368 4.5392C8.98401 5.73798 10.4119 6.23069 11.8749 6.60858C11.9102 6.61618 11.9418 6.63572 11.9646 6.66394C11.9873 6.69217 11.9998 6.72737 11.9999 6.76371C12 6.80005 11.9877 6.83534 11.9652 6.86369C11.9426 6.89205 11.911 6.91177 11.8758 6.91958Z" fill="#89D81A"/>
</svg>
