<svg width="48" height="30" viewBox="0 0 48 30" fill="none" xmlns="http://www.w3.org/2000/svg">
<path fill-rule="evenodd" clip-rule="evenodd" d="M44.4 0H2.4C1.2 0 0 1.2 0 2.4V26.4C0 28.8 1.2 30 3.6 30H44.4C46.8 30 48 28.8 48 26.4V3.6C48 1.2 46.8 0 44.4 0Z" fill="#265697"/>
<path fill-rule="evenodd" clip-rule="evenodd" d="M44.8633 15.15C44.8654 22.1214 39.2758 27.774 32.3788 27.7755C25.4815 27.7773 19.8895 22.1277 19.8877 15.1563V15.15C19.8859 8.17887 25.4755 2.52597 32.3722 2.52417C39.2692 2.52237 44.8615 8.17227 44.8633 15.1437V15.15Z" fill="#DFAC16"/>
<path fill-rule="evenodd" clip-rule="evenodd" d="M15.5434 2.52747C8.68724 2.57157 3.13574 8.20947 3.13574 15.15C3.13574 22.1175 8.73044 27.7725 15.6238 27.7725C18.859 27.7725 21.808 26.526 24.0271 24.4836L24.0262 24.483H24.0289C24.4839 24.064 24.9077 23.6123 25.2967 23.1315H22.738C22.3999 22.7186 22.089 22.2842 21.8071 21.831H26.2195C26.4889 21.3955 26.7316 20.9442 26.9464 20.4795H21.0784C20.8794 20.0477 20.7051 19.605 20.5564 19.1535H27.469C27.896 17.8619 28.113 16.5102 28.1116 15.15C28.1121 14.2413 28.0157 13.3352 27.8239 12.447H20.1901C20.2846 11.9988 20.404 11.556 20.5462 11.121H27.4612C27.3078 10.6606 27.1281 10.2093 26.923 9.76947H21.0775C21.2888 9.31306 21.5281 8.87021 21.7942 8.44347H26.2033C25.9103 7.97219 25.5866 7.52072 25.2343 7.09197H22.7758C23.1602 6.63552 23.579 6.20927 24.0286 5.81697C21.8095 3.77397 18.8599 2.52747 15.6235 2.52747H15.5434Z" fill="#BF3126"/>
<path fill-rule="evenodd" clip-rule="evenodd" d="M20.115 18.3637L20.2812 17.2213C20.1903 17.2213 20.0568 17.2609 19.9386 17.2609C19.4757 17.2609 19.4247 17.0119 19.4544 16.828L19.8282 14.497H20.5317L20.7015 13.2337H20.0382L20.1732 12.4477H18.8436C18.8142 12.4777 18.0588 16.8673 18.0588 17.4019C18.0588 18.193 18.4983 18.5455 19.1181 18.5398C19.6035 18.5359 19.9815 18.4 20.115 18.3637ZM20.5362 16.1857C20.5362 18.085 21.7764 18.5362 22.833 18.5362C23.8083 18.5362 24.2376 18.316 24.2376 18.316L24.4716 17.02C24.4716 17.02 23.7297 17.35 23.0598 17.35C21.6318 17.35 21.882 16.2742 21.882 16.2742H24.5841C24.5841 16.2742 24.7587 15.4033 24.7587 15.0484C24.7587 14.1628 24.3225 13.084 22.8627 13.084C21.5259 13.084 20.5362 14.5399 20.5362 16.1857ZM22.8678 14.2876C23.6181 14.2876 23.4798 15.1396 23.4798 15.2086H22.0038C22.0038 15.1207 22.143 14.2876 22.8678 14.2876ZM31.2876 18.3631L31.5255 16.8982C31.5255 16.8982 30.873 17.2288 30.4254 17.2288C29.4822 17.2288 29.1039 16.5007 29.1039 15.7186C29.1039 14.1322 29.9154 13.2592 30.8187 13.2592C31.4964 13.2592 32.04 13.6438 32.04 13.6438L32.2572 12.2203C32.2572 12.2203 31.4508 11.8903 30.7596 11.8903C29.2245 11.8903 27.7314 13.2364 27.7314 15.7642C27.7314 17.4403 28.5378 18.5473 30.1245 18.5473C30.573 18.5473 31.2876 18.3631 31.2876 18.3631ZM12.8019 13.1047C11.8902 13.1047 11.1912 13.4011 11.1912 13.4011L10.9983 14.5588C10.9983 14.5588 11.5752 14.3218 12.4473 14.3218C12.9423 14.3218 13.3044 14.3782 13.3044 14.7847C13.3044 15.0319 13.26 15.1231 13.26 15.1231C13.26 15.1231 12.8697 15.0901 12.6888 15.0901C11.5389 15.0901 10.3308 15.586 10.3308 17.0815C10.3308 18.2599 11.1234 18.5305 11.6145 18.5305C12.5526 18.5305 12.957 17.9152 12.9786 17.9131L12.9348 18.4267H14.1054L14.6277 14.7256C14.6277 13.1554 13.2726 13.1047 12.8019 13.1047ZM13.0869 16.1185C13.1121 16.3444 12.9465 17.4043 12.1461 17.4043C11.733 17.4043 11.6256 17.0854 11.6256 16.8967C11.6256 16.5289 11.8236 16.0873 12.7977 16.0873C13.0242 16.0876 13.0485 16.1122 13.0869 16.1185ZM15.8721 18.5032C16.1718 18.5032 17.8839 18.5803 17.8839 16.7944C17.8839 15.1249 16.299 15.4549 16.299 14.7844C16.299 14.4502 16.557 14.3452 17.0295 14.3452C17.217 14.3452 17.9379 14.4052 17.9379 14.4052L18.1059 13.2187C18.1059 13.2187 17.6391 13.1131 16.8789 13.1131C15.8955 13.1131 14.8971 13.51 14.8971 14.8681C14.8971 16.4065 16.5618 16.2523 16.5618 16.9003C16.5618 17.3329 16.0968 17.3683 15.7383 17.3683C15.1179 17.3683 14.5593 17.1532 14.5575 17.1634L14.3802 18.3379C14.4123 18.3481 14.7567 18.5032 15.8721 18.5032ZM42.3012 12.04L42.0144 13.8388C42.0144 13.8388 41.514 13.1398 40.7304 13.1398C39.5124 13.1398 38.4969 14.6248 38.4969 16.3306C38.4969 17.4316 39.0384 18.5107 40.1457 18.5107C40.9422 18.5107 41.3835 17.9497 41.3835 17.9497L41.325 18.4288H42.6183L43.6341 12.0379L42.3012 12.04ZM41.6838 15.547C41.6838 16.2571 41.3361 17.2054 40.6152 17.2054C40.1367 17.2054 39.9126 16.7992 39.9126 16.162C39.9126 15.1201 40.3755 14.4328 40.9596 14.4328C41.4384 14.4328 41.6838 14.7646 41.6838 15.547ZM5.60251 18.4345L6.41191 13.6093L6.53071 18.4345H7.44691L9.15571 13.6093L8.39881 18.4345H9.75991L10.8084 12.0349H8.70301L7.39201 15.9613L7.32391 12.0349H5.38381L4.32031 18.4345H5.60251ZM26.0883 18.4432C26.4753 16.2187 26.5473 14.4124 27.4707 14.743C27.6327 13.882 27.7887 13.549 27.9648 13.1845C27.9648 13.1845 27.8823 13.1668 27.7086 13.1668C27.1131 13.1668 26.6718 13.9891 26.6718 13.9891L26.7906 13.234H25.5525L24.723 18.4432H26.0883ZM34.3557 13.1047C33.4437 13.1047 32.7447 13.4011 32.7447 13.4011L32.5521 14.5588C32.5521 14.5588 33.129 14.3218 34.0011 14.3218C34.4961 14.3218 34.8579 14.3782 34.8579 14.7847C34.8579 15.0319 34.8138 15.1231 34.8138 15.1231C34.8138 15.1231 34.4235 15.0901 34.2423 15.0901C33.0927 15.0901 31.8846 15.586 31.8846 17.0815C31.8846 18.2599 32.6769 18.5305 33.168 18.5305C34.1061 18.5305 34.5105 17.9152 34.5321 17.9131L34.4886 18.4267H35.6592L36.1812 14.7256C36.1815 13.1554 34.8264 13.1047 34.3557 13.1047ZM34.6407 16.1185C34.6662 16.3444 34.5006 17.4043 33.6996 17.4043C33.2868 17.4043 33.1797 17.0854 33.1797 16.8967C33.1797 16.5289 33.3774 16.0873 34.3515 16.0873C34.578 16.0876 34.6023 16.1122 34.6407 16.1185ZM37.2516 18.4432C37.6386 16.2187 37.7106 14.4124 38.6337 14.743C38.7957 13.882 38.9517 13.549 39.1281 13.1845C39.1281 13.1845 39.0453 13.1668 38.8719 13.1668C38.2764 13.1668 37.8351 13.9891 37.8351 13.9891L37.9536 13.234H36.7158L35.8863 18.4432H37.2516Z" fill="white"/>
</svg>
