<svg width="6" height="7" viewBox="0 0 6 7" fill="none" xmlns="http://www.w3.org/2000/svg">
<path d="M5.93766 3.46004C5.30451 3.62311 4.52141 3.86073 4.05025 4.33968C3.47727 4.92394 3.26622 5.8129 3.07924 6.7C3.07584 6.71787 3.06635 6.734 3.05242 6.7456C3.03848 6.7572 3.02096 6.76354 3.00288 6.76354C2.9848 6.76354 2.96727 6.7572 2.95333 6.7456C2.93939 6.734 2.92991 6.71787 2.92651 6.7C2.7747 5.98901 2.58032 5.13639 2.17118 4.60805C1.65097 3.93714 0.849347 3.66225 0.0625426 3.46004C0.0448169 3.45613 0.0289557 3.44623 0.017582 3.432C0.0062082 3.41776 0 3.40004 0 3.38177C0 3.3635 0.0062082 3.34578 0.017582 3.33155C0.0289557 3.31731 0.0448169 3.30741 0.0625426 3.3035C0.750302 3.12645 1.54359 2.8907 2.03141 2.34559C2.54514 1.77811 2.75063 0.887277 2.92651 0.0635453C2.92991 0.0456663 2.93939 0.0295421 2.95333 0.0179437C2.96727 0.00634539 2.9848 0 3.00288 0C3.02096 0 3.03848 0.00634539 3.05242 0.0179437C3.06635 0.0295421 3.07584 0.0456663 3.07924 0.0635453C3.24216 0.837891 3.52171 1.71754 3.98731 2.26918C4.49272 2.86834 5.20639 3.11527 5.93766 3.3035C5.95538 3.30741 5.97124 3.31731 5.98262 3.33155C5.99399 3.34578 6.0002 3.3635 6.0002 3.38177C6.0002 3.40004 5.99399 3.41776 5.98262 3.432C5.97124 3.44623 5.95538 3.45613 5.93766 3.46004Z" fill="#89D81A"/>
</svg>
