<svg width="45" height="40" viewBox="0 0 45 40" fill="none" xmlns="http://www.w3.org/2000/svg">
<path d="M22.8304 23.0456C19.0107 23.0345 14.8509 24.1232 11.891 26.2285C10.3547 27.2857 9.17577 28.6893 8.48063 30.2889C7.86803 31.7587 7.89326 33.3718 8.87701 34.5356C9.44373 35.1934 10.2202 35.6894 11.1083 35.9609C10.8373 36.3693 10.6941 36.8332 10.6933 37.3056C10.6925 37.778 10.834 38.2423 11.1036 38.6515C11.3732 39.0606 11.7612 39.4002 12.2286 39.6358C12.6959 39.8715 13.2259 39.9948 13.7651 39.9935H13.9064C13.1134 37.6738 13.2655 35.1847 14.3366 32.9525H13.2257C12.4163 32.9525 12.0592 32.7188 11.9245 32.5603C11.7897 32.4018 11.6722 32.2086 11.9688 31.598C12.2167 31.1177 12.5812 30.6905 13.0369 30.3464C13.5042 29.9515 14.0593 29.645 14.6675 29.446C15.2758 29.247 15.9242 29.1597 16.5726 29.1895H17.3232C20.1339 26.7867 23.9428 25.4126 26.969 25.3905H27.1131C28.17 25.4739 29.246 25.6075 30.0521 26.0024C30.0521 26.0024 31.0297 23.8819 24.9024 23.1712C24.2136 23.0919 23.5197 23.0515 22.825 23.0503L22.8304 23.0456Z" fill="#FDBC01"/>
<path d="M1.30471 0.000693316C1.15061 0.00707885 1.00277 0.0560757 0.88242 0.140653C0.76207 0.225229 0.675392 0.341038 0.634824 0.47146L0.0254764 2.45714C0.000312065 2.53802 -0.00629613 2.62247 0.00603421 2.7056C0.0183645 2.78874 0.0493886 2.8689 0.097311 2.94146C0.145233 3.01402 0.209103 3.07753 0.285223 3.12831C0.361342 3.1791 0.448202 3.21615 0.540774 3.23733L2.41674 3.67937L3.14212 3.8505L5.1961 4.33168L7.07027 10.4652C10.6489 11.1981 16.048 12.9529 16.048 12.9529C17.151 13.3088 16.8407 11.2164 17.7827 11.5637C31.6517 16.6685 29.4284 20.8792 29.4284 20.8792C31.8089 22.8122 31.8089 24.2346 31.2946 25.0675C38.0886 16.9132 23.242 10.0604 15.7997 7.74387C15.5395 7.66336 15.2775 7.58127 15.0174 7.50328H15.003L9.71739 6.25737L8.57941 2.5405C8.49349 2.25825 8.32411 2.00086 8.08837 1.7943C7.85263 1.58775 7.55888 1.43934 7.23675 1.36405L3.14068 0.401682L1.522 0.0221636C1.45135 0.00485309 1.37799 -0.00239609 1.30471 0.000693316ZM26.4004 18.4569C26.3719 18.4569 26.3561 18.4765 26.351 18.5096C26.3226 18.778 26.3399 19.4253 26.4988 19.5775C26.6577 19.7296 27.9985 20.4299 28.0764 20.1628C28.1257 19.9933 27.4573 19.3397 27.2162 19.0824C27.0037 18.8395 26.7443 18.6311 26.4498 18.4667C26.4376 18.4623 26.4247 18.4595 26.4116 18.4585H26.399L26.4004 18.4569Z" fill="#44215D"/>
<path d="M31.1584 25.2339C30.557 25.9389 30.0618 25.9986 30.0586 25.9986C30.1035 25.9913 30.148 25.9821 30.1919 25.9708C31.4931 25.6775 42.2636 23.0117 38.9844 13.1303L15.0025 7.49883C21.9854 9.5625 38.5113 16.5921 31.1584 25.2326V25.2339Z" fill="#610060"/>
<path d="M38.9818 13.1226C42.1259 22.9345 31.4927 25.6767 30.1912 25.97C30.1473 25.9812 30.1028 25.9905 30.0578 25.9978C38.4327 28.0643 42.8332 24.8393 42.8332 24.8393C42.8332 24.8393 44.1377 18.1952 44.5662 16.0065C44.6453 15.5977 44.548 15.1777 44.293 14.8284C44.0381 14.4791 43.6438 14.2254 43.1871 14.1169L38.9818 13.1226Z" fill="#9B0257"/>
<path d="M42.8782 24.6125C42.4228 24.8809 38.3108 28.0209 30.0581 26.0018C30.0204 27.068 30.1002 28.1349 30.2963 29.1876H40.3803C40.8279 29.1866 41.2607 29.0475 41.6029 28.7947C41.9451 28.5419 42.1748 28.1916 42.2516 27.8053L42.8782 24.6125ZM31.4502 32.9547C32.3533 35.0166 33.8608 36.8335 35.8208 38.2222C36.0794 37.5928 36.0601 36.9014 35.7668 36.2838H39.5551C40.2549 36.2838 40.5789 36.3198 40.7025 35.6874L40.9151 34.6057L41.0549 33.3708C40.9468 33.0759 40.6199 32.9537 40.2059 32.9537L31.4502 32.9547Z" fill="#D20653"/>
<path d="M30.0578 26.0035C28.3339 26.7751 26.8186 27.8614 25.614 29.1893H30.2957C30.1087 28.1356 30.0291 27.0695 30.0578 26.0035ZM23.4303 32.9564C23.0969 34.04 23.0037 35.1696 23.1557 36.2839H30.0942C29.9418 36.6096 29.8627 36.9581 29.8611 37.3101C29.8613 37.9432 30.1163 38.5559 30.5812 39.0405C31.0461 39.5252 31.6911 39.8507 32.4028 39.9597C33.1145 40.0688 33.8473 39.9546 34.4724 39.637C35.0974 39.3194 35.5747 38.8189 35.8202 38.2235C33.8047 36.8343 32.1619 34.5148 31.4495 32.956L23.4303 32.9564Z" fill="#F45B14"/>
<path d="M26.9791 25.3859C23.9522 25.408 20.1422 26.7751 17.3333 29.1848H25.6173C26.8358 27.8689 28.3479 26.7846 30.0611 25.9984C29.1572 25.5779 28.1454 25.3672 27.1221 25.3865L26.9791 25.3859ZM14.3417 32.956C13.2722 35.1886 13.1201 37.6771 13.9114 39.997C14.7005 39.9648 15.4451 39.6677 15.9906 39.1671C16.5361 38.6666 16.8407 38.0012 16.8411 37.3091C16.8411 36.9568 16.7613 36.608 16.6061 36.283H23.1561C23.0316 35.1682 23.1244 34.0429 23.4307 32.9554L14.3417 32.956Z" fill="#FF951D"/>
<path d="M1.41877 0.533755C1.24112 0.533755 1.12833 0.613005 1.06491 0.82013C0.939509 1.23754 0.588891 2.37072 0.588891 2.37072C0.588891 2.37072 1.4458 1.29721 1.78236 1.29721C2.30126 1.29721 6.47841 1.6881 6.47841 1.6881L2.15856 0.671417C1.91925 0.59957 1.67103 0.552933 1.41913 0.532492L1.41877 0.533755ZM29.2329 11.4024L37.6315 13.989L34.8208 13.9763C34.8208 13.9763 39.1709 14.7467 41.3356 15.2541C41.9164 15.3931 42.6227 15.4976 42.6973 16.5057C42.875 18.9685 41.8782 25.5917 41.8782 25.5917C41.8782 25.5917 43.7445 16.9493 43.8382 16.4404C43.9319 15.9314 44.2778 14.8803 42.5687 14.4796C40.8595 14.0789 29.2329 11.4024 29.2329 11.4024ZM11.7615 36.277C11.5852 36.5412 11.4791 36.8369 11.4511 37.1421C11.4232 37.4472 11.4741 37.754 11.6 38.0395C11.726 38.325 11.9238 38.582 12.1787 38.7914C12.4336 39.0007 12.7391 39.157 13.0724 39.2487C12.824 39.0254 12.6283 38.7613 12.4964 38.4716C12.3646 38.1819 12.2993 37.8723 12.3042 37.5604C12.461 37.8432 12.7059 38.0813 13.0104 38.2475C12.7621 37.9736 12.5876 37.6542 12.4996 37.3131C12.4117 36.9719 12.4128 36.6177 12.5027 36.277H11.7615ZM30.9215 36.277V36.2839C30.6741 36.6596 30.57 37.0947 30.6242 37.5259C30.6785 37.9571 30.8883 38.3618 31.2231 38.6813C31.1351 38.3792 31.116 38.0649 31.1669 37.7563C31.2179 37.4477 31.3379 37.151 31.52 36.8832C31.4959 37.197 31.5722 37.5106 31.7406 37.7884C31.6449 37.264 31.7695 36.727 32.0912 36.277H30.9215Z" fill="white"/>
</svg>
