<svg width="197" height="172" viewBox="0 0 197 172" fill="none" xmlns="http://www.w3.org/2000/svg">
<path fill-rule="evenodd" clip-rule="evenodd" d="M124.839 115.999L124.267 118.257L67.8289 103.97L68.3999 101.712C72.9157 102.855 76.4184 98.5055 76.985 96.2707L80.2417 83.4024C82.8209 74.0376 91.3486 67.5576 101.063 67.5814C101.895 64.4752 105.088 62.6325 108.194 63.4652C111.3 64.2978 113.143 67.4905 112.31 70.5967C120.83 75.3518 125.196 85.1534 123.032 94.6666L119.878 107.129C119.209 109.77 122.582 115.427 124.839 115.999Z" fill="#F1F2F7"/>
<path fill-rule="evenodd" clip-rule="evenodd" d="M85.9038 110.948C86.4457 116.71 91.5556 120.943 97.3178 120.401C100.456 120.107 103.295 118.415 105.049 115.794L85.9038 110.948Z" fill="#FFDA3E"/>
<path fill-rule="evenodd" clip-rule="evenodd" d="M177.563 94.132C177.563 136.861 142.924 171.5 100.195 171.5C57.4664 171.5 22.8279 136.861 22.8279 94.132C22.8279 51.4033 57.4664 16.764 100.195 16.764C142.924 16.764 177.563 51.4033 177.563 94.132Z" stroke="#E9EAEC" stroke-dasharray="5.02 5.02"/>
<path fill-rule="evenodd" clip-rule="evenodd" d="M157.649 94.1318C157.649 125.862 131.926 151.586 100.195 151.586C68.4637 151.586 42.7419 125.862 42.7419 94.1318C42.7419 62.4012 68.4637 36.678 100.195 36.678C131.926 36.678 157.649 62.4012 157.649 94.1318Z" stroke="#E9EAEC" stroke-dasharray="5.05 5.05"/>
<path fill-rule="evenodd" clip-rule="evenodd" d="M154.626 41.1797C155.741 41.1797 156.643 42.0809 156.643 43.1968C156.643 44.3127 155.741 45.2139 154.626 45.2139C153.51 45.2139 152.608 44.3127 152.608 43.1968C152.608 42.0809 153.51 41.1797 154.626 41.1797ZM160.676 41.1797C161.792 41.1797 162.693 42.0809 162.693 43.1968C162.693 44.3127 161.792 45.2139 160.676 45.2139C159.56 45.2139 158.659 44.3127 158.659 43.1968C158.659 42.0809 159.56 41.1797 160.676 41.1797ZM166.728 41.1797C167.844 41.1797 168.745 42.0809 168.745 43.1968C168.745 44.3127 167.844 45.2139 166.728 45.2139C165.612 45.2139 164.711 44.3127 164.711 43.1968C164.711 42.0809 165.612 41.1797 166.728 41.1797ZM152.369 54.292H161.995C162.903 54.292 162.903 54.2987 163.338 54.6199C163.773 54.9412 168.74 58.3262 168.74 58.3262V54.292H168.973C171.633 54.292 173.782 52.2875 173.782 49.7911V36.6223C173.782 34.1259 171.627 32.1021 168.973 32.1021H152.369C149.715 32.1021 147.559 34.1259 147.559 36.6223V49.7911C147.559 52.2875 149.715 54.292 152.369 54.292Z" fill="url(#paint0_linear_387_2249)"/>
<path fill-rule="evenodd" clip-rule="evenodd" d="M35.8531 64.4231C35.8531 65.1529 35.2642 65.7417 34.5337 65.7417C33.8046 65.7417 33.2157 65.1529 33.2157 64.4231C33.2157 63.6933 33.8046 63.1037 34.5337 63.1037C35.2642 63.1037 35.8531 63.6933 35.8531 64.4231ZM31.8954 64.423C31.8954 65.1528 31.3057 65.7417 30.5767 65.7417C29.8469 65.7417 29.2573 65.1528 29.2573 64.423C29.2573 63.6932 29.8469 63.1036 30.5767 63.1036C31.3057 63.1036 31.8954 63.6932 31.8954 64.423ZM27.9397 64.4231C27.9397 65.1529 27.35 65.7417 26.6202 65.7417C25.8912 65.7417 25.3016 65.1529 25.3016 64.4231C25.3016 63.6933 25.8912 63.1037 26.6202 63.1037C27.35 63.1037 27.9397 63.6933 27.9397 64.4231ZM39.1554 68.7346V60.1242C39.1554 58.4917 37.745 57.1686 36.0104 57.1686H25.1533C23.4179 57.1686 22.0083 58.4917 22.0083 60.1242V68.7346C22.0083 70.3664 23.4142 71.6768 25.1533 71.6768H25.3061V74.3157C25.3061 74.3157 28.5539 72.1017 28.8379 71.8915C29.1227 71.6813 29.1227 71.6768 29.716 71.6768H36.0104C37.745 71.6768 39.1554 70.3664 39.1554 68.7346Z" fill="url(#paint1_linear_387_2249)"/>
<path fill-rule="evenodd" clip-rule="evenodd" d="M85.9082 110.961C86.4501 116.723 91.56 120.956 97.3222 120.414C100.46 120.12 103.3 118.428 105.053 115.807L85.9082 110.961Z" fill="url(#paint2_linear_387_2249)"/>
<path fill-rule="evenodd" clip-rule="evenodd" d="M131.414 76.3404C132.728 77.9215 133.715 79.7836 134.386 81.7575C135.069 83.7321 135.403 85.8297 135.438 87.9289C135.438 88.9792 135.362 90.028 135.227 91.0678C135.048 92.1025 134.841 93.1297 134.516 94.1248C133.888 96.1159 132.938 98.0041 131.644 99.6112C131.588 99.6805 131.488 99.691 131.419 99.6358C131.365 99.5918 131.347 99.5203 131.368 99.4576C132.042 97.5397 132.601 95.6478 132.975 93.7283C133.045 93.2438 133.14 92.7667 133.221 92.2874C133.276 91.8036 133.349 91.3235 133.391 90.8405C133.422 90.3567 133.485 89.8759 133.505 89.3921C133.512 88.9076 133.535 88.4238 133.533 87.94C133.544 86.0027 133.328 84.0683 132.952 82.1481C132.565 80.2263 131.983 78.3337 131.283 76.4157C131.269 76.3762 131.289 76.3322 131.329 76.3181C131.36 76.3061 131.394 76.3166 131.414 76.3404Z" fill="url(#paint3_linear_387_2249)"/>
<path fill-rule="evenodd" clip-rule="evenodd" d="M138.816 77.0117C140.084 78.4735 141.04 80.2073 141.706 82.0478C142.373 83.8905 142.758 85.848 142.827 87.8174C142.901 89.7861 142.661 91.7652 142.135 93.6504C141.61 95.5348 140.79 97.3358 139.635 98.8878C139.628 98.8975 139.613 98.8997 139.604 98.893C139.597 98.887 139.594 98.8773 139.596 98.8691C140.075 97.0011 140.476 95.1837 140.719 93.3567C140.962 91.5304 141.042 89.7048 140.974 87.886C140.899 86.0679 140.679 84.2558 140.292 82.4571C139.907 80.6561 139.362 78.879 138.741 77.0549C138.734 77.0318 138.746 77.0072 138.769 76.999C138.786 76.9931 138.805 76.9983 138.816 77.0117Z" fill="url(#paint4_linear_387_2249)"/>
<path fill-rule="evenodd" clip-rule="evenodd" d="M71.1597 86.3399C70.7571 84.3354 70.7527 82.2415 71.0717 80.1946C71.3803 78.1424 72.0438 76.1417 72.9651 74.2729C73.9088 72.4153 75.1149 70.6867 76.5715 69.2077C78.0176 67.7236 79.6948 66.466 81.545 65.5879C81.5785 65.5723 81.6173 65.5864 81.6329 65.6192C81.6456 65.6461 81.6389 65.6774 81.6173 65.6968C80.1123 67.0631 78.7265 68.4876 77.5018 70.0299C76.286 71.5752 75.2103 73.2174 74.3412 74.9654C73.4481 76.7023 72.7668 78.5427 72.2487 80.4413C71.7389 82.3444 71.4243 84.3086 71.2238 86.3369C71.2215 86.3541 71.2059 86.3675 71.188 86.366C71.1738 86.3645 71.1627 86.3533 71.1597 86.3399Z" fill="url(#paint5_linear_387_2249)"/>
<path fill-rule="evenodd" clip-rule="evenodd" d="M64.8409 82.3775C64.46 80.4953 64.4533 78.5341 64.7299 76.6139C65.0154 74.6936 65.5856 72.807 66.4272 71.05C67.2599 69.29 68.3348 67.6434 69.6281 66.201C70.9154 64.7563 72.4033 63.4936 74.0611 62.5394C72.7074 63.8872 71.4641 65.293 70.3795 66.8048C69.2986 68.318 68.3586 69.9139 67.5968 71.5927C66.8424 73.2736 66.2371 75.0194 65.8055 76.8211C65.362 78.622 65.0959 80.47 64.9043 82.3745C64.9021 82.3917 64.8872 82.4043 64.8685 82.4028C64.8551 82.4014 64.8432 82.3909 64.8409 82.3775Z" fill="url(#paint6_linear_387_2249)"/>
<path fill-rule="evenodd" clip-rule="evenodd" d="M124.843 116.012C124.843 116.012 121.505 114.715 119.751 112.864C117.307 110.287 117.468 107.475 119.12 102.049C121.063 95.5866 121.01 88.7793 120.262 85.6589C117.655 74.7861 112.314 70.6095 112.314 70.6095C120.834 75.3646 125.2 85.1662 123.036 94.6794L119.883 107.141C119.329 108.983 122.586 115.44 124.843 116.012L124.272 118.27L124.843 116.012Z" fill="#D8DBEA"/>
<path d="M8.21134 104.549L6.7749 104.505" stroke="#D2D8DF" stroke-linecap="round"/>
<path d="M7.18057 101.825L6.15039 102.787" stroke="#D2D8DF" stroke-linecap="round"/>
<path d="M4.49623 100.582L4.47461 101.986" stroke="#D2D8DF" stroke-linecap="round"/>
<path d="M1.72876 101.546L2.72912 102.57" stroke="#D2D8DF" stroke-linecap="round"/>
<path d="M0.5 104.154L1.93569 104.198" stroke="#D2D8DF" stroke-linecap="round"/>
<path d="M1.53076 106.877L2.56169 105.915" stroke="#D2D8DF" stroke-linecap="round"/>
<path d="M4.21558 108.121L4.23719 106.717" stroke="#D2D8DF" stroke-linecap="round"/>
<path d="M6.98327 107.157L5.98291 106.132" stroke="#D2D8DF" stroke-linecap="round"/>
<path d="M195.54 84.5266L194.908 85.2102" stroke="#D2D8DF" stroke-linecap="round"/>
<path d="M192.576 85.1206L193.052 85.5597" stroke="#D2D8DF" stroke-linecap="round"/>
<path d="M192.095 88.1496L192.727 87.4661" stroke="#D2D8DF" stroke-linecap="round"/>
<path d="M195.058 87.5558L194.582 87.1167" stroke="#D2D8DF" stroke-linecap="round"/>
<path d="M137.711 4.18748L136.184 4.14648" stroke="#D2D8DF" stroke-linecap="round"/>
<path d="M133.76 0.5L133.737 1.80524" stroke="#D2D8DF" stroke-linecap="round"/>
<path d="M129.509 3.82019L131.036 3.86044" stroke="#D2D8DF" stroke-linecap="round"/>
<path d="M133.46 7.50739L133.483 6.20215" stroke="#D2D8DF" stroke-linecap="round"/>
<path fill-rule="evenodd" clip-rule="evenodd" d="M24.6043 145.118C23.5055 145.447 21.6755 147.061 21.0493 148.975C20.9442 147.197 19.8149 144.961 18.5723 144.639C20.0885 144.103 21.7306 142.133 22.1675 140.473C22.0884 142.213 23.668 144.739 24.6043 145.118Z" fill="#EBECEF"/>
<path fill-rule="evenodd" clip-rule="evenodd" d="M50.3384 11.1786C49.4909 11.3284 47.9888 12.372 47.3567 13.7436C47.432 12.41 46.7842 10.6471 45.8867 10.2997C47.0623 10.0313 48.4562 8.70597 48.9251 7.50732C48.7156 8.79691 49.6735 10.8155 50.3384 11.1786Z" fill="#EBECEF"/>
<path fill-rule="evenodd" clip-rule="evenodd" d="M162.674 20.8629C161.542 20.8383 160.645 19.9013 160.67 18.7697C160.695 17.6382 161.632 16.7407 162.762 16.7653C163.895 16.7899 164.792 17.7269 164.768 18.8584C164.742 19.99 163.806 20.8875 162.674 20.8629Z" fill="#D1D9E0"/>
<path fill-rule="evenodd" clip-rule="evenodd" d="M162.68 155.153C161.695 155.132 160.914 154.316 160.935 153.332C160.956 152.346 161.772 151.565 162.758 151.586C163.743 151.607 164.524 152.423 164.503 153.408C164.481 154.393 163.665 155.175 162.68 155.153Z" fill="#EBECEF"/>
<path fill-rule="evenodd" clip-rule="evenodd" d="M14.5308 48.0608C13.9211 48.0473 13.4373 47.5427 13.4507 46.9322C13.4634 46.3224 13.9688 45.8394 14.5785 45.8521C15.1883 45.8655 15.6721 46.3701 15.6594 46.9799C15.646 47.5904 15.1406 48.0742 14.5308 48.0608Z" stroke="#D2D8DF" stroke-linecap="round"/>
<defs>
<linearGradient id="paint0_linear_387_2249" x1="147.559" y1="32.1021" x2="147.559" y2="58.3262" gradientUnits="userSpaceOnUse">
<stop stop-color="#FAD961"/>
<stop offset="1" stop-color="#F76B1C"/>
</linearGradient>
<linearGradient id="paint1_linear_387_2249" x1="30.5818" y1="48.595" x2="13.4348" y2="65.7421" gradientUnits="userSpaceOnUse">
<stop stop-color="#FF8960"/>
<stop offset="1" stop-color="#FF62A5"/>
</linearGradient>
<linearGradient id="paint2_linear_387_2249" x1="95.4806" y1="106.211" x2="87.9151" y2="121.457" gradientUnits="userSpaceOnUse">
<stop stop-color="#FF8960"/>
<stop offset="1" stop-color="#FF62A5"/>
</linearGradient>
<linearGradient id="paint3_linear_387_2249" x1="133.358" y1="64.6341" x2="125.296" y2="66.0695" gradientUnits="userSpaceOnUse">
<stop stop-color="#FF8960"/>
<stop offset="1" stop-color="#FF62A5"/>
</linearGradient>
<linearGradient id="paint4_linear_387_2249" x1="140.79" y1="66.0464" x2="132.865" y2="67.5304" gradientUnits="userSpaceOnUse">
<stop stop-color="#FF8960"/>
<stop offset="1" stop-color="#FF62A5"/>
</linearGradient>
<linearGradient id="paint5_linear_387_2249" x1="76.2417" y1="55.1893" x2="59.238" y2="64.0208" gradientUnits="userSpaceOnUse">
<stop stop-color="#FF8960"/>
<stop offset="1" stop-color="#FF62A5"/>
</linearGradient>
<linearGradient id="paint6_linear_387_2249" x1="69.299" y1="52.6077" x2="53.8112" y2="60.0338" gradientUnits="userSpaceOnUse">
<stop stop-color="#FF8960"/>
<stop offset="1" stop-color="#FF62A5"/>
</linearGradient>
</defs>
</svg>
