<svg width="22" height="22" viewBox="0 0 22 22" fill="none" xmlns="http://www.w3.org/2000/svg">
<path d="M16.931 15.4276L17.2885 18.3242C17.3802 19.085 16.5644 19.6167 15.9135 19.2225L12.0727 16.94C11.651 16.94 11.2385 16.9126 10.8352 16.8576C11.5135 16.0601 11.9169 15.0517 11.9169 13.9609C11.9169 11.3575 9.66185 9.24923 6.87519 9.24923C5.81185 9.24923 4.83102 9.55171 4.01519 10.0834C3.98769 9.85421 3.97852 9.62503 3.97852 9.3867C3.97852 5.21586 7.59935 1.83337 12.0727 1.83337C16.546 1.83337 20.1669 5.21586 20.1669 9.3867C20.1669 11.8617 18.8927 14.0526 16.931 15.4276Z" stroke="white" stroke-width="1.5" stroke-linecap="round" stroke-linejoin="round"/>
<path d="M11.9168 13.9608C11.9168 15.0516 11.5135 16.06 10.8352 16.8575C9.92767 17.9575 8.4885 18.6633 6.87516 18.6633L4.48266 20.0841C4.07933 20.3316 3.56599 19.9924 3.62099 19.5249L3.85016 17.7191C2.62183 16.8666 1.8335 15.5008 1.8335 13.9608C1.8335 12.3474 2.69517 10.9266 4.01517 10.0833C4.831 9.55162 5.81183 9.24915 6.87516 9.24915C9.66183 9.24915 11.9168 11.3574 11.9168 13.9608Z" stroke="white" stroke-width="1.5" stroke-linecap="round" stroke-linejoin="round"/>
</svg>
