<svg width="18" height="18" viewBox="0 0 18 18" fill="none" xmlns="http://www.w3.org/2000/svg">
<path d="M16.4927 13.2177V13.2139C16.3669 11.5201 14.8097 10.2407 13.0131 10.3572C12.0195 10.4202 11.1638 10.8976 10.6123 11.5946L7.90325 10.3457C8.00261 10.0134 8.04519 9.66781 8.01883 9.31645C7.99449 8.95936 7.89919 8.61945 7.75725 8.30628L10.2595 6.72897C10.9043 7.34767 11.8228 7.71049 12.8144 7.64557C13.6782 7.59019 14.4812 7.21209 15.053 6.59721C16.2351 5.31779 16.0973 3.37575 14.7387 2.26056C14.0858 1.72206 13.2341 1.45472 12.3663 1.50628C10.5677 1.62658 9.2091 3.09123 9.33279 4.78502C9.36118 5.14402 9.45243 5.48202 9.59437 5.79519L7.09621 7.3725C6.4514 6.75379 5.53487 6.39097 4.54534 6.4559C2.7427 6.57238 1.38413 8.03703 1.50782 9.73082C1.62543 11.4246 3.18677 12.7059 4.98536 12.5914C5.84917 12.536 6.65214 12.1617 7.22396 11.5468C7.27668 11.4838 7.3294 11.4208 7.3801 11.3559L10.0891 12.6009C9.99383 12.9313 9.95124 13.2769 9.97355 13.6359C10.0972 15.3297 11.6525 16.6091 13.4551 16.4926C15.2537 16.3762 16.6123 14.9115 16.4927 13.2177ZM12.4535 2.62529C13.0009 2.59092 13.5423 2.76278 13.958 3.10268C14.3737 3.44641 14.6272 3.92762 14.6637 4.4413C14.7427 5.5183 13.8789 6.45208 12.7353 6.52656C11.5937 6.60103 10.6042 5.78755 10.5251 4.71055C10.446 3.63355 11.3098 2.69976 12.4535 2.62529ZM4.9083 11.4724C3.76467 11.5468 2.77514 10.7334 2.69606 9.66017C2.61698 8.58126 3.47471 7.64939 4.62037 7.57491C5.16988 7.53672 5.71331 7.70858 6.12494 8.05231C6.54062 8.39221 6.79408 8.87342 6.83464 9.3871C6.91372 10.466 6.04991 11.3979 4.9083 11.4724ZM13.372 15.3736C12.2324 15.4481 11.2409 14.6346 11.1618 13.5576C11.0827 12.4825 11.9465 11.5507 13.0902 11.4762C14.2358 11.4055 15.2253 12.2152 15.3044 13.2922C15.3794 14.3711 14.5177 15.303 13.372 15.3736Z" fill="#333333" stroke="#333333" stroke-width="0.2"/>
</svg>
