<svg width="20" height="20" viewBox="0 0 20 20" fill="none" xmlns="http://www.w3.org/2000/svg">
<path d="M10.0001 12.9167C11.8417 12.9167 13.3334 11.4251 13.3334 9.58341V5.00008C13.3334 3.15841 11.8417 1.66675 10.0001 1.66675C8.15841 1.66675 6.66675 3.15841 6.66675 5.00008V9.58341C6.66675 11.4251 8.15841 12.9167 10.0001 12.9167Z" stroke="#D20653" stroke-width="1.5" stroke-linecap="round" stroke-linejoin="round"/>
<path d="M8.84155 5.35835C9.59155 5.08335 10.4082 5.08335 11.1582 5.35835" stroke="#D20653" stroke-width="1.5" stroke-linecap="round" stroke-linejoin="round"/>
<path d="M9.33325 7.1251C9.77492 7.00843 10.2333 7.00843 10.6749 7.1251" stroke="#D20653" stroke-width="1.5" stroke-linecap="round" stroke-linejoin="round"/>
<path d="M3.62476 8.04199V9.45866C3.62476 12.9753 6.48309 15.8337 9.99976 15.8337C13.5164 15.8337 16.3748 12.9753 16.3748 9.45866V8.04199" stroke="#D20653" stroke-width="1.5" stroke-linecap="round" stroke-linejoin="round"/>
<path d="M10 15.8333V18.3333" stroke="#D20653" stroke-width="1.5" stroke-linecap="round" stroke-linejoin="round"/>
</svg>
