<svg width="18" height="18" viewBox="0 0 18 18" fill="none" xmlns="http://www.w3.org/2000/svg">
<path d="M9 17.75C8.8332 17.75 8.67324 17.6837 8.5553 17.5658C8.43735 17.4479 8.37109 17.2879 8.37109 17.1211V0.878906C8.37109 0.71211 8.43735 0.552145 8.5553 0.434202C8.67324 0.31626 8.8332 0.25 9 0.25C9.1668 0.25 9.32676 0.31626 9.4447 0.434202C9.56265 0.552145 9.62891 0.71211 9.62891 0.878906V17.1211C9.62891 17.2879 9.56265 17.4479 9.4447 17.5658C9.32676 17.6837 9.1668 17.75 9 17.75Z" fill="white" stroke="white" stroke-width="0.5"/>
<path d="M17.1211 9.62891H0.878906C0.71211 9.62891 0.552145 9.56265 0.434202 9.4447C0.31626 9.32676 0.25 9.1668 0.25 9C0.25 8.8332 0.31626 8.67324 0.434202 8.5553C0.552145 8.43735 0.71211 8.37109 0.878906 8.37109H17.1211C17.2879 8.37109 17.4479 8.43735 17.5658 8.5553C17.6837 8.67324 17.75 8.8332 17.75 9C17.75 9.1668 17.6837 9.32676 17.5658 9.4447C17.4479 9.56265 17.2879 9.62891 17.1211 9.62891Z" fill="white" stroke="white" stroke-width="0.5"/>
</svg>
