<svg width="20" height="20" viewBox="0 0 20 20" fill="none" xmlns="http://www.w3.org/2000/svg">
<path d="M11.667 15.8333C11.667 16.75 10.917 17.5 10.0003 17.5C9.08366 17.5 8.33366 16.75 8.33366 15.8333C8.33366 14.9167 9.08366 14.1667 10.0003 14.1667C10.917 14.1667 11.667 14.9167 11.667 15.8333Z" stroke="#ABABAB" stroke-width="1.5"/>
<path d="M11.667 4.16671C11.667 5.08337 10.917 5.83337 10.0003 5.83337C9.08366 5.83337 8.33366 5.08337 8.33366 4.16671C8.33366 3.25004 9.08366 2.50004 10.0003 2.50004C10.917 2.50004 11.667 3.25004 11.667 4.16671Z" stroke="#ABABAB" stroke-width="1.5"/>
<path d="M11.667 9.99996C11.667 10.9166 10.917 11.6666 10.0003 11.6666C9.08366 11.6666 8.33366 10.9166 8.33366 9.99996C8.33366 9.08329 9.08366 8.33329 10.0003 8.33329C10.917 8.33329 11.667 9.08329 11.667 9.99996Z" stroke="#ABABAB" stroke-width="1.5"/>
</svg>
