<svg width="48" height="15" viewBox="0 0 48 15" fill="none" xmlns="http://www.w3.org/2000/svg">
<path d="M17.5996 14.1714L20.0377 0.457153H23.8472L21.4853 14.1714H17.5996Z" fill="#3C58BF"/>
<path d="M17.5996 14.1714L20.7234 0.457153H23.8472L21.4853 14.1714H17.5996Z" fill="#293688"/>
<path d="M35.2763 0.609523C34.5144 0.304761 33.2953 0 31.7715 0C27.962 0 25.2191 1.90476 25.2191 4.64762C25.2191 6.70476 27.1239 7.77143 28.6477 8.45714C30.1715 9.14286 30.6287 9.6 30.6287 10.2095C30.6287 11.1238 29.4096 11.581 28.343 11.581C26.8191 11.581 25.981 11.3524 24.6858 10.819L24.1525 10.5905L23.6191 13.7143C24.5334 14.0952 26.2096 14.4762 27.962 14.4762C32.0001 14.4762 34.6668 12.5714 34.6668 9.67619C34.6668 8.07619 33.6763 6.85714 31.3906 5.86667C30.0191 5.18095 29.181 4.8 29.181 4.11429C29.181 3.50476 29.8668 2.89524 31.3906 2.89524C32.6858 2.89524 33.6001 3.12381 34.2858 3.42857L34.6668 3.58095L35.2763 0.609523Z" fill="#3C58BF"/>
<path d="M35.2763 0.609523C34.5144 0.304761 33.2953 0 31.7715 0C27.962 0 25.9049 1.90476 25.9049 4.64762C25.9049 6.70476 27.1239 7.77143 28.6477 8.45714C30.1715 9.14286 30.6287 9.6 30.6287 10.2095C30.6287 11.1238 29.4096 11.581 28.343 11.581C26.8191 11.581 25.981 11.3524 24.6858 10.819L24.1525 10.5905L23.6191 13.7143C24.5334 14.0952 26.2096 14.4762 27.962 14.4762C32.0001 14.4762 34.6668 12.5714 34.6668 9.67619C34.6668 8.07619 33.6763 6.85714 31.3906 5.86667C30.0191 5.18095 29.181 4.8 29.181 4.11429C29.181 3.50476 29.8668 2.89524 31.3906 2.89524C32.6858 2.89524 33.6001 3.12381 34.2858 3.42857L34.6668 3.58095L35.2763 0.609523Z" fill="#293688"/>
<path d="M41.829 0.457153C40.9147 0.457153 40.229 0.533345 39.8481 1.44763L34.1338 14.1714H38.2481L39.01 11.8857H43.8862L44.3433 14.1714H48.0005L44.8005 0.457153H41.829ZM40.0766 9.60001C40.3052 8.9143 41.6005 5.56192 41.6005 5.56192C41.6005 5.56192 41.9052 4.72382 42.1338 4.19049L42.3624 5.48573C42.3624 5.48573 43.1243 8.9143 43.2766 9.6762H40.0766V9.60001Z" fill="#3C58BF"/>
<path d="M42.7433 0.457153C41.829 0.457153 41.1433 0.533345 40.7624 1.44763L34.1338 14.1714H38.2481L39.01 11.8857H43.8862L44.3433 14.1714H48.0005L44.8005 0.457153H42.7433ZM40.0766 9.60001C40.3814 8.83811 41.6005 5.56192 41.6005 5.56192C41.6005 5.56192 41.9052 4.72382 42.1338 4.19049L42.3624 5.48573C42.3624 5.48573 43.1243 8.9143 43.2766 9.6762H40.0766V9.60001Z" fill="#293688"/>
<path d="M10.5903 10.0571L10.2093 8.07618C9.5236 5.79047 7.31407 3.27618 4.87598 2.05713L8.30455 14.2476H12.4188L18.5903 0.533325H14.476L10.5903 10.0571Z" fill="#3C58BF"/>
<path d="M10.5903 10.0571L10.2093 8.07618C9.5236 5.79047 7.31407 3.27618 4.87598 2.05713L8.30455 14.2476H12.4188L18.5903 0.533325H15.2379L10.5903 10.0571Z" fill="#293688"/>
<path d="M0 0.457153L0.685714 0.609535C5.56191 1.75239 8.91429 4.64763 10.2095 8.0762L8.8381 1.60001C8.60952 0.685725 7.92381 0.457153 7.08572 0.457153H0Z" fill="#FFBC00"/>
<path d="M0 0.457153C4.87619 1.60001 8.91429 4.57144 10.2095 8.00001L8.91429 2.59049C8.68571 1.6762 7.92381 1.14287 7.08572 1.14287L0 0.457153Z" fill="#F7981D"/>
<path d="M0 0.457153C4.87619 1.60001 8.91429 4.57144 10.2095 8.00001L9.29524 5.02858C9.06667 4.1143 8.76191 3.20001 7.69524 2.81906L0 0.457153Z" fill="#ED7C00"/>
<path d="M14.3998 9.60001L11.8093 7.00953L10.5902 9.90477L10.2855 8.00001C9.59977 5.71429 7.39024 3.2 4.95215 1.98096L8.38072 14.1714H12.495L14.3998 9.60001ZM21.4855 14.1714L18.2093 10.8191L17.5998 14.1714H21.4855ZM30.2474 9.44762C30.5522 9.75239 30.7045 9.98096 30.6283 10.2857C30.6283 11.2 29.4093 11.6571 28.3426 11.6571C26.8188 11.6571 25.9807 11.4286 24.6855 10.8952L24.1522 10.6667L23.6188 13.7905C24.5331 14.1714 26.2093 14.5524 27.9617 14.5524C30.3998 14.5524 32.3807 13.8667 33.5236 12.6476L30.2474 9.44762ZM34.6664 14.1714H38.2474L39.0093 11.8857H43.8855L44.3426 14.1714H47.9998L46.7045 8.60953L42.1331 4.19048L42.3617 5.40953C42.3617 5.40953 43.1236 8.8381 43.276 9.60001H40.076C40.3807 8.8381 41.5998 5.56191 41.5998 5.56191C41.5998 5.56191 41.9045 4.72382 42.1331 4.19048" fill="#051244"/>
</svg>
