<svg width="48" height="48" viewBox="0 0 48 48" fill="none" xmlns="http://www.w3.org/2000/svg">
<circle cx="24" cy="24" r="24" fill="#F8F8FA"/>
<path d="M24 34.75C23.22 34.75 22.46 34.35 21.94 33.65L20.93 32.3C20.72 32.02 20.44 31.86 20.14 31.84C19.84 31.83 19.54 31.96 19.3 32.21L18.73 31.7L19.28 32.21C17.84 33.75 16.73 33.63 16.2 33.42C15.66 33.21 14.75 32.52 14.75 30.3V19.04C14.75 14.6 16.03 13.25 20.22 13.25H27.78C31.97 13.25 33.25 14.6 33.25 19.04V30.3C33.25 32.51 32.34 33.2 31.8 33.42C31.27 33.63 30.17 33.75 28.72 32.21C28.48 31.95 28.19 31.81 27.87 31.84C27.57 31.86 27.28 32.02 27.07 32.3L26.06 33.65C25.54 34.35 24.78 34.75 24 34.75ZM20.08 30.33C20.12 30.33 20.17 30.33 20.21 30.33C20.95 30.37 21.65 30.76 22.12 31.39L23.13 32.74C23.62 33.39 24.37 33.39 24.86 32.74L25.87 31.39C26.35 30.76 27.04 30.37 27.79 30.33C28.53 30.29 29.27 30.6 29.81 31.18C30.57 31.99 31.07 32.09 31.24 32.02C31.48 31.92 31.74 31.34 31.74 30.3V19.04C31.74 15.43 31.11 14.75 27.77 14.75H20.22C16.88 14.75 16.25 15.43 16.25 19.04V30.3C16.25 31.35 16.51 31.93 16.75 32.02C16.92 32.09 17.42 31.99 18.18 31.18C18.72 30.63 19.39 30.33 20.08 30.33Z" fill="#828282"/>
<path d="M28 19.75H20C19.59 19.75 19.25 19.41 19.25 19C19.25 18.59 19.59 18.25 20 18.25H28C28.41 18.25 28.75 18.59 28.75 19C28.75 19.41 28.41 19.75 28 19.75Z" fill="#828282"/>
<path d="M27 23.75H21C20.59 23.75 20.25 23.41 20.25 23C20.25 22.59 20.59 22.25 21 22.25H27C27.41 22.25 27.75 22.59 27.75 23C27.75 23.41 27.41 23.75 27 23.75Z" fill="#828282"/>
</svg>
