<svg width="48" height="48" viewBox="0 0 48 48" fill="none" xmlns="http://www.w3.org/2000/svg">
<circle cx="24" cy="24" r="24" fill="#F8F8FA"/>
<path d="M22.7499 14.4501C23.4499 13.8601 24.5799 13.8601 25.2599 14.4501L26.8399 15.8001C27.1399 16.0501 27.7099 16.2601 28.1099 16.2601H29.8099C30.8699 16.2601 31.7399 17.1301 31.7399 18.1901V19.8901C31.7399 20.2901 31.9499 20.8501 32.1999 21.1501L33.5499 22.7301C34.1399 23.4301 34.1399 24.5601 33.5499 25.2401L32.1999 26.8201C31.9499 27.1201 31.7399 27.6801 31.7399 28.0801V29.7801C31.7399 30.8401 30.8699 31.7101 29.8099 31.7101H28.1099C27.7099 31.7101 27.1499 31.9201 26.8499 32.1701L25.2699 33.5201C24.5699 34.1101 23.4399 34.1101 22.7599 33.5201L21.1799 32.1701C20.8799 31.9201 20.3099 31.7101 19.9199 31.7101H18.1699C17.1099 31.7101 16.2399 30.8401 16.2399 29.7801V28.0701C16.2399 27.6801 16.0399 27.1101 15.7899 26.8201L14.4399 25.2301C13.8599 24.5401 13.8599 23.4201 14.4399 22.7301L15.7899 21.1401C16.0399 20.8401 16.2399 20.2801 16.2399 19.8901V18.2001C16.2399 17.1401 17.1099 16.2701 18.1699 16.2701H19.8999C20.2999 16.2701 20.8599 16.0601 21.1599 15.8101L22.7499 14.4501Z" stroke="#828282" stroke-width="1.5" stroke-linecap="round" stroke-linejoin="round"/>
<path d="M24 20.1299V24.9599" stroke="#828282" stroke-width="1.5" stroke-linecap="round" stroke-linejoin="round"/>
<path d="M23.9941 28H24.0031" stroke="#828282" stroke-width="2" stroke-linecap="round" stroke-linejoin="round"/>
</svg>
