<svg id="about" xmlns="http://www.w3.org/2000/svg" width="30" height="30" viewBox="0 0 30 30">
  <circle id="Ellipse_6186" data-name="Ellipse 6186" cx="15" cy="15" r="15" fill="#f8f8f8"/>
  <g id="about-2" data-name="about" transform="translate(8.409 8.158)">
    <path id="Path_22735" data-name="Path 22735" d="M7.09,14.181a7.09,7.09,0,0,1-5.014-12.1A7.09,7.09,0,0,1,12.1,12.1,7.044,7.044,0,0,1,7.09,14.181ZM7.09.886a6.2,6.2,0,1,0,6.2,6.2A6.211,6.211,0,0,0,7.09.886Z" transform="translate(0 0)" fill="#949494" stroke="#949494" stroke-width="0.3"/>
    <path id="Path_22736" data-name="Path 22736" d="M178.216,103.534a.443.443,0,0,1-.443-.443A4.16,4.16,0,0,1,179,100.129a2.6,2.6,0,0,0,.768-1.853,1.391,1.391,0,0,0-1.39-1.39h-.1a1.391,1.391,0,0,0-1.39,1.39v.161a.443.443,0,1,1-.886,0v-.161A2.279,2.279,0,0,1,178.276,96h.1a2.279,2.279,0,0,1,2.276,2.276,3.484,3.484,0,0,1-1.027,2.48,3.28,3.28,0,0,0-.967,2.334A.443.443,0,0,1,178.216,103.534Z" transform="translate(-171.125 -93.341)" fill="#949494" stroke="#949494" stroke-width="0.3"/>
    <path id="Path_22737" data-name="Path 22737" d="M240.458,400.886a.443.443,0,0,1,0-.886h0a.443.443,0,0,1,0,.886Z" transform="translate(-233.367 -388.921)" fill="#949494" stroke="#949494" stroke-width="0.3"/>
  </g>
</svg>
