<svg xmlns="http://www.w3.org/2000/svg" width="13.683" height="15.979" viewBox="0 0 13.683 15.979">
  <g id="bin" transform="translate(-4.023 -2)">
    <path id="Path_48065" data-name="Path 48065" d="M17.706,5.995a1.712,1.712,0,0,0-1.712-1.712H13.14V3.712A1.712,1.712,0,0,0,11.428,2H10.287A1.712,1.712,0,0,0,8.575,3.712v.571H5.722A1.712,1.712,0,0,0,5.151,7.6v8.663a1.712,1.712,0,0,0,1.712,1.712h7.989a1.712,1.712,0,0,0,1.712-1.712V7.6a1.712,1.712,0,0,0,1.141-1.609ZM9.717,3.712a.571.571,0,0,1,.571-.571h1.141A.571.571,0,0,1,12,3.712v.571H9.717Zm5.707,12.555a.571.571,0,0,1-.571.571H6.863a.571.571,0,0,1-.571-.571V7.707h9.131Zm.571-9.7H5.722a.571.571,0,0,1,0-1.141H15.994a.571.571,0,0,1,0,1.141Z" transform="translate(0)" fill="#f03a17"/>
    <path id="Path_48066" data-name="Path 48066" d="M12.571,20.707a.571.571,0,0,0,.571-.571V15.571a.571.571,0,0,0-1.141,0v4.565A.571.571,0,0,0,12.571,20.707Zm3.424,0a.571.571,0,0,0,.571-.571V15.571a.571.571,0,0,0-1.141,0v4.565A.571.571,0,0,0,15.995,20.707Z" transform="translate(-3.425 -5.581)" fill="#f03a17"/>
  </g>
</svg>
