<svg id="category" xmlns="http://www.w3.org/2000/svg" width="24" height="24" viewBox="0 0 24 24">
  <path id="Vector" d="M3,8H5A2.652,2.652,0,0,0,8,5V3A2.652,2.652,0,0,0,5,0H3A2.652,2.652,0,0,0,0,3V5A2.652,2.652,0,0,0,3,8Z" transform="translate(2 2)" fill="none" stroke="#bcbcbc" stroke-linecap="round" stroke-linejoin="round" stroke-width="1.5"/>
  <path id="Vector-2" data-name="Vector" d="M3,8H5A2.652,2.652,0,0,0,8,5V3A2.652,2.652,0,0,0,5,0H3A2.652,2.652,0,0,0,0,3V5A2.652,2.652,0,0,0,3,8Z" transform="translate(14 2)" fill="none" stroke="#bcbcbc" stroke-linecap="round" stroke-linejoin="round" stroke-width="1.5"/>
  <path id="Vector-3" data-name="Vector" d="M3,8H5A2.652,2.652,0,0,0,8,5V3A2.652,2.652,0,0,0,5,0H3A2.652,2.652,0,0,0,0,3V5A2.652,2.652,0,0,0,3,8Z" transform="translate(14 14)" fill="none" stroke="#bcbcbc" stroke-linecap="round" stroke-linejoin="round" stroke-width="1.5"/>
  <path id="Vector-4" data-name="Vector" d="M3,8H5A2.652,2.652,0,0,0,8,5V3A2.652,2.652,0,0,0,5,0H3A2.652,2.652,0,0,0,0,3V5A2.652,2.652,0,0,0,3,8Z" transform="translate(2 14)" fill="none" stroke="#bcbcbc" stroke-linecap="round" stroke-linejoin="round" stroke-width="1.5"/>
  <path id="Vector-5" data-name="Vector" d="M0,0H24V24H0Z" fill="none" opacity="0"/>
</svg>
