<svg id="check" xmlns="http://www.w3.org/2000/svg" width="69.63" height="69.63" viewBox="0 0 69.63 69.63">
  <path id="Path_29561" data-name="Path 29561" d="M114.723,90.821h0a2.507,2.507,0,0,1-1.924-.875L99.589,75.6a2.6,2.6,0,0,1,3.849-3.5L114.81,84.436l31.491-31.4a2.536,2.536,0,0,1,3.674,0,2.613,2.613,0,0,1,0,3.674L116.56,90.034A2.382,2.382,0,0,1,114.723,90.821Z" transform="translate(-82.357 -43.498)" fill="#ffad1e"/>
  <path id="Path_29562" data-name="Path 29562" d="M34.815,69.63a34.815,34.815,0,1,1,0-69.63,2.577,2.577,0,0,1,2.624,2.624,2.577,2.577,0,0,1-2.624,2.624A29.566,29.566,0,1,0,64.381,34.815a2.624,2.624,0,0,1,5.248,0A34.906,34.906,0,0,1,34.815,69.63Z" transform="translate(0 0)" fill="#ffad1e"/>
</svg>
