<svg xmlns="http://www.w3.org/2000/svg" width="150.999" height="144.313" viewBox="0 0 150.999 144.313">
  <g id="code" transform="translate(0 0)">
    <g id="Group_597" data-name="Group 597" transform="translate(5.881 0)">
      <circle id="Ellipse_27" data-name="Ellipse 27" cx="51.022" cy="51.022" r="51.022" transform="translate(0 72.156) rotate(-45)" fill="#ffad1e" opacity="0.2"/>
      <path id="Path_434" data-name="Path 434" d="M193.033,195.071v17.154a51.323,51.323,0,0,0,6.332,7.365V195.071h.01v-.058c.03-.127,3.108-2.679,5.475-4.617v-1.072l-2.864-.74a5.44,5.44,0,0,0-3.516.273c-.5.214-1.014.419-1.529.584v2.241a50,50,0,0,0-3.9,3.332v.058Z" transform="translate(-162.549 -110.65)" fill="#a82424" opacity="0.3"/>
      <g id="Group_25835" data-name="Group 25835" transform="translate(24.112 7.727)">
        <path id="Path_24596" data-name="Path 24596" d="M210.455,162.119a29.38,29.38,0,0,0-2.729-15.459c-6.091-12.391-4.694-13.291-4.883-25.589a4.549,4.549,0,0,0-9.1,0v45.74a10.085,10.085,0,0,1-.216,2.069v6.548a10.019,10.019,0,0,1-10.007,10.008h-24.9a35.333,35.333,0,0,0,15.132,12.009l.114.047a14.836,14.836,0,0,1,7.914,7.986A54.926,54.926,0,0,0,213.056,193.1l-3.39-12.455a15.9,15.9,0,0,1-.5-5.468Zm0,0" transform="translate(-131.453 -90.276)" fill="#f9cfa9"/>
        <path id="Path_24597" data-name="Path 24597" d="M48.28,107.982,46.894,106.7a5.294,5.294,0,1,0-7.2,7.767l8.582,7.952Zm0,0" transform="translate(-38.008 -81.577)" fill="#f9cfa9"/>
        <path id="Path_24598" data-name="Path 24598" d="M128.265,0h-38.9a6.854,6.854,0,0,0-6.845,6.846V88.832a6.854,6.854,0,0,0,6.845,6.846h38.9a6.855,6.855,0,0,0,6.846-6.846V6.846A6.855,6.855,0,0,0,128.265,0Zm0,0" transform="translate(-72.49)" fill="#414141"/>
        <path id="Path_24599" data-name="Path 24599" d="M95.694,5.077A3.458,3.458,0,0,1,97.138,0h-7.78a6.847,6.847,0,0,0-6.846,6.846V88.832a6.846,6.846,0,0,0,6.846,6.845h8.271v-84.6a10.781,10.781,0,0,0-1.935-6Zm0,0" transform="translate(-72.487 0)" fill="#414141"/>
        <path id="Path_24600" data-name="Path 24600" d="M100.109,191.977v45.59a2.883,2.883,0,0,0,2.882,2.883h38.9a2.883,2.883,0,0,0,2.883-2.883v-45.59Zm0,0" transform="translate(-86.121 -148.735)" fill="#ffe4b5"/>
        <path id="Path_24601" data-name="Path 24601" d="M100.109,191.977v45.59a2.883,2.883,0,0,0,2.882,2.883h6.819V191.977Zm0,0" transform="translate(-86.121 -148.735)" fill="#ffad1e" opacity="0.34"/>
        <path id="Path_24602" data-name="Path 24602" d="M138.607,237.494a4.516,4.516,0,1,1-4.516-4.517A4.516,4.516,0,0,1,138.607,237.494Zm0,0" transform="translate(-108.949 -180.498)" fill="#949494"/>
        <path id="Path_24603" data-name="Path 24603" d="M138.607,311.849a4.516,4.516,0,1,1-4.516-4.516A4.517,4.517,0,0,1,138.607,311.849Zm0,0" transform="translate(-108.949 -238.106)" fill="#949494"/>
        <path id="Path_24604" data-name="Path 24604" d="M133.58,233.113a4.516,4.516,0,1,0,4.249,7.02A4.519,4.519,0,0,1,133.58,233.113Zm0,0" transform="translate(-108.948 -180.604)" fill="#414141"/>
        <path id="Path_24605" data-name="Path 24605" d="M133.58,307.469a4.516,4.516,0,1,0,4.249,7.02A4.519,4.519,0,0,1,133.58,307.469Zm0,0" transform="translate(-108.948 -238.212)" fill="#414141"/>
        <g id="Group_20469" data-name="Group 20469" transform="translate(35.497 51.739)">
          <path id="Path_24606" data-name="Path 24606" d="M203.7,233.074h-6.413a1.689,1.689,0,0,1,0-3.379H203.7a1.689,1.689,0,1,1,0,3.379Zm0,0" transform="translate(-195.597 -229.695)" fill="#fff"/>
          <path id="Path_24607" data-name="Path 24607" d="M210.112,264.746H197.287a1.689,1.689,0,1,1,0-3.379h12.825a1.689,1.689,0,1,1,0,3.379Zm0,0" transform="translate(-195.597 -254.233)" fill="#fff"/>
          <path id="Path_24608" data-name="Path 24608" d="M203.7,307.426h-6.413a1.689,1.689,0,0,1,0-3.379H203.7a1.689,1.689,0,1,1,0,3.379Zm0,0" transform="translate(-195.597 -287.299)" fill="#fff"/>
          <path id="Path_24609" data-name="Path 24609" d="M210.112,339.1H197.287a1.689,1.689,0,1,1,0-3.379h12.825a1.689,1.689,0,1,1,0,3.379Zm0,0" transform="translate(-195.597 -311.837)" fill="#fff"/>
        </g>
        <path id="Path_24610" data-name="Path 24610" d="M141.794,17.6h-5.782a.987.987,0,0,0-.987.986,2.385,2.385,0,0,1-2.377,2.378H112.039a2.385,2.385,0,0,1-2.378-2.378.987.987,0,0,0-.987-.986h-5.782a2.883,2.883,0,0,0-2.883,2.882V57.327h44.67V20.48a2.883,2.883,0,0,0-2.883-2.882Zm0,0" transform="translate(-86.043 -13.634)" fill="#01939b"/>
        <path id="Path_24611" data-name="Path 24611" d="M109.732,19.154a2.342,2.342,0,0,1-.072-.569.987.987,0,0,0-.987-.987h-5.782a2.883,2.883,0,0,0-2.883,2.882V57.327h9.724Zm0,0" transform="translate(-86.043 -13.634)" fill="#06787f"/>
        <path id="Path_24612" data-name="Path 24612" d="M214.963,17.6h-5.782a.987.987,0,0,0-.987.986,2.385,2.385,0,0,1-2.377,2.378H194.45l23.4,29.328V20.48a2.883,2.883,0,0,0-2.883-2.882Zm0,0" transform="translate(-159.211 -13.634)" fill="#01939b"/>
        <path id="Path_24613" data-name="Path 24613" d="M134.312,65.586h-7.79a1.689,1.689,0,0,1,0-3.379h7.79a1.689,1.689,0,0,1,0,3.379Zm0,0" transform="translate(-105.275 -48.195)" fill="#fff"/>
        <path id="Path_24614" data-name="Path 24614" d="M63.429,189.625a4.64,4.64,0,0,1-6.556.25l-7.77-7.2a4.639,4.639,0,0,1,6.306-6.806l7.77,7.2A4.64,4.64,0,0,1,63.429,189.625Zm0,0" transform="translate(-45.452 -135.297)" fill="#f9cfa9"/>
        <path id="Path_24615" data-name="Path 24615" d="M82.306,200.307l-3.7-3.424a5.446,5.446,0,0,1-6.305,6.806l3.7,3.424a4.639,4.639,0,1,0,6.306-6.806Zm0,0" transform="translate(-64.579 -152.536)" fill="#fbbc8d"/>
        <path id="Path_24616" data-name="Path 24616" d="M63.429,245.8a4.639,4.639,0,0,1-6.556.25l-7.77-7.2a4.639,4.639,0,1,1,6.306-6.8l7.77,7.2A4.639,4.639,0,0,1,63.429,245.8Zm0,0" transform="translate(-45.452 -178.819)" fill="#f9cfa9"/>
        <path id="Path_24617" data-name="Path 24617" d="M63.429,301.973a4.639,4.639,0,0,1-6.556.25l-7.77-7.2a4.639,4.639,0,0,1,6.306-6.806l7.77,7.2A4.64,4.64,0,0,1,63.429,301.973Zm0,0" transform="translate(-45.452 -222.338)" fill="#f9cfa9"/>
        <path id="Path_24618" data-name="Path 24618" d="M242.666,391.931a16,16,0,0,1-.488-2.7,37.019,37.019,0,0,1-40.963,16.592,35.294,35.294,0,0,0,5.538,2.9l.113.047a14.83,14.83,0,0,1,7.914,7.986,54.927,54.927,0,0,0,31.276-12.375Zm0,0" transform="translate(-164.452 -301.56)" fill="#fbbc8d"/>
        <path id="Path_24619" data-name="Path 24619" d="M82.306,256.483l-3.7-3.424a5.446,5.446,0,0,1-6.305,6.806l3.7,3.424a4.639,4.639,0,1,0,6.306-6.8Zm0,0" transform="translate(-64.579 -196.058)" fill="#fbbc8d"/>
        <path id="Path_24620" data-name="Path 24620" d="M82.306,312.655l-3.7-3.424a5.446,5.446,0,0,1-6.305,6.806l3.7,3.424a4.639,4.639,0,1,0,6.306-6.806Zm0,0" transform="translate(-64.579 -239.577)" fill="#fbbc8d"/>
      </g>
    </g>
    <g id="Group_598" data-name="Group 598" transform="translate(104.009 6.694)">
      <path id="Path_435" data-name="Path 435" d="M322.216,101.7l-14.973,35.131L296.3,129.341l-6.342,9.215-1.144-15.545-13.244-8.07Z" transform="translate(-275.569 -101.697)" fill="#d8d9d9"/>
      <path id="Path_436" data-name="Path 436" d="M296.79,129.6l13.369,9.149-10.943-7.486-6.342,9.215-1.144-15.545,21.1-12.568Z" transform="translate(-278.485 -103.623)" fill="#838484"/>
      <path id="Path_437" data-name="Path 437" d="M292.01,128.747l20.823-16.379-21.1,12.568Z" transform="translate(-278.485 -103.623)" fill="#585e60"/>
    </g>
    <path id="Path_438" data-name="Path 438" d="M180.91,195a1.063,1.063,0,0,0,.1-2.12,25.245,25.245,0,0,1-16.639-8.634,1.063,1.063,0,0,0-1.6,1.4A27.354,27.354,0,0,0,180.805,195C180.841,195,180.875,195,180.91,195Z" transform="translate(-151.16 -109.833)" fill="#ffad1e"/>
    <g id="Group_603" data-name="Group 603" transform="translate(0 7.089)" opacity="0.2">
      <path id="Path_452" data-name="Path 452" d="M306.13,218.032a3.571,3.571,0,1,0,3.571-3.571A3.571,3.571,0,0,0,306.13,218.032Zm2.126,0a1.445,1.445,0,1,1,1.445,1.446A1.445,1.445,0,0,1,308.256,218.032Z" transform="translate(-177.075 -122.44)" fill="#ffad1e"/>
      <path id="Path_453" data-name="Path 453" d="M148.661,154.18a2.734,2.734,0,1,0,2.733-2.733A2.733,2.733,0,0,0,148.661,154.18Zm1.627,0a1.107,1.107,0,1,1,1.106,1.106A1.107,1.107,0,0,1,150.288,154.18Z" transform="translate(-148.661 -111.069)" fill="#ffad1e"/>
      <path id="Path_454" data-name="Path 454" d="M314.912,188.229a3.039,3.039,0,1,1-3.04,3.04A3.04,3.04,0,0,1,314.912,188.229Z" transform="translate(-178.111 -117.706)" fill="#ffad1e"/>
      <path id="Path_455" data-name="Path 455" d="M177.626,201.159a2.21,2.21,0,1,1-2.21,2.21A2.21,2.21,0,0,1,177.626,201.159Z" transform="translate(-153.489 -120.039)" fill="#ffad1e"/>
      <path id="Path_456" data-name="Path 456" d="M276.361,102.179a3.231,3.231,0,1,1-3.231,3.231A3.231,3.231,0,0,1,276.361,102.179Z" transform="translate(-171.121 -102.179)" fill="#ffad1e"/>
      <path id="Path_457" data-name="Path 457" d="M201.681,119.647a2.763,2.763,0,1,1-2.764,2.763A2.762,2.762,0,0,1,201.681,119.647Z" transform="translate(-157.729 -105.331)" fill="#ffad1e"/>
      <circle id="Ellipse_28" data-name="Ellipse 28" cx="1.712" cy="1.712" r="1.712" transform="translate(147.575 34.752)" fill="#ffad1e"/>
      <path id="Path_458" data-name="Path 458" d="M247.824,106.159l-1.075-1.075a.959.959,0,1,1,1.356-1.356l1.075,1.075,1.075-1.075a.958.958,0,0,1,1.355,1.356l-1.075,1.075,1.075,1.075a.958.958,0,0,1-1.355,1.356l-1.075-1.075L248.1,108.59a.959.959,0,1,1-1.356-1.356Z" transform="translate(-166.31 -102.408)" fill="#ffad1e"/>
      <path id="Path_459" data-name="Path 459" d="M175.22,220.072l-.911-.911a.811.811,0,0,1,1.147-1.147l.911.91.911-.91a.812.812,0,1,1,1.148,1.147l-.911.911.911.91a.812.812,0,1,1-1.148,1.147l-.911-.911-.911.911a.811.811,0,1,1-1.147-1.147Z" transform="translate(-153.246 -123.038)" fill="#ffad1e"/>
    </g>
    <g id="Group_604" data-name="Group 604" transform="translate(61.219 45.63)" opacity="0.4">
      <path id="Path_460" data-name="Path 460" d="M292.568,151.51c.117-.685.267-1.367.444-2.03l-1.026-.275c-.186.694-.343,1.409-.466,2.124Z" transform="translate(-235.658 -149.205)" fill="#a82424"/>
      <path id="Path_461" data-name="Path 461" d="M293.93,175.735a7.72,7.72,0,0,0,3.752-1.248l.587.885A8.786,8.786,0,0,1,294,176.8Zm-7.846-2.553.791-.711a10.684,10.684,0,0,0,3.179,2.5l-.469.954A11.738,11.738,0,0,1,286.084,173.182Zm14.19-1.674a7.7,7.7,0,0,0,.806-3.391c0-.093,0-.186-.006-.282l-.01-.193,1.06-.078.012.23c0,.107.007.216.007.323a8.767,8.767,0,0,1-.916,3.862Zm-44.476.057.078-1.06c1.425.1,2.85.161,4.235.168l-.006,1.063C258.7,171.729,257.247,171.671,255.8,171.564Zm8.544-1.029.665-.05c1.275-.107,2.428-.25,3.527-.44l.18,1.047c-1.128.2-2.313.343-3.619.451l-.679.052Zm-17.071-.124.2-1.043c1.412.272,2.821.506,4.188.691l-.143,1.054C250.13,170.924,248.7,170.688,247.271,170.411Zm25.324-1.379a19.611,19.611,0,0,0,3.3-1.464c.158-.088.314-.18.47-.274l.549.91c-.165.1-.331.2-.5.29a20.582,20.582,0,0,1-3.481,1.543Zm9.118-3.377,1-.361a23.9,23.9,0,0,0,1.753,3.79l-.921.529A24.92,24.92,0,0,1,281.713,165.656Zm-42.8,2.741.293-1.022c1.4.4,2.782.766,4.111,1.088l-.25,1.033C241.727,169.171,240.329,168.8,238.916,168.4Zm-8.164-2.635.355-1q2.005.712,4.032,1.371l-.328,1.011Q232.771,166.482,230.752,165.763Zm49.086-.879a30.916,30.916,0,0,1,3.281-2.155c.125-.068.252-.136.379-.2l.487.945-.356.188a29.419,29.419,0,0,0-3.164,2.082Zm16.211-2.595.357-1a9.079,9.079,0,0,1,3.912,2.1l-.743.76A8.277,8.277,0,0,0,296.049,162.289Zm-8.415-1.256a18.021,18.021,0,0,1,4.373-.429l-.026,1.063-.43-.006a16.89,16.89,0,0,0-3.684.408ZM280.2,157.1l1.063,0a24.674,24.674,0,0,0,.377,4.162l-1.046.186A25.63,25.63,0,0,1,280.2,157.1Z" transform="translate(-224.693 -150.629)" fill="#a82424"/>
      <path id="Path_462" data-name="Path 462" d="M225.349,165.455l.378-.993q-.992-.377-1.982-.765l-.386.991Q224.351,165.074,225.349,165.455Z" transform="translate(-223.359 -151.82)" fill="#a82424"/>
    </g>
  </g>
</svg>
