<svg id="contactus" xmlns="http://www.w3.org/2000/svg" width="30" height="30" viewBox="0 0 30 30">
  <circle id="Ellipse_6186" data-name="Ellipse 6186" cx="15" cy="15" r="15" fill="#f8f8f8"/>
  <g id="chat" transform="translate(9.189 7.943)">
    <rect id="Rectangle_26390" data-name="Rectangle 26390" width="16" height="16" transform="translate(-2.189 -0.943)" fill="#949494" opacity="0"/>
    <g id="noun_call_2442970" transform="translate(-1.613 -0.369)">
      <path id="Path_22408" data-name="Path 22408" d="M12.151,14.825l-.655-.009-.189-.036c-.148-.028-.306-.056-.456-.094a9.019,9.019,0,0,1-2.7-1.24,22.265,22.265,0,0,1-3.743-3.118A22.682,22.682,0,0,1,1.555,6.944,9.408,9.408,0,0,1,.171,4.1C.12,3.915.086,3.733.053,3.556.039,3.48.025,3.408.01,3.33L0,3.237V2.708l.036-.086A4.229,4.229,0,0,1,1.179,1.14c.318-.3.653-.567.968-.818a1.538,1.538,0,0,1,1.369-.3,1.215,1.215,0,0,1,.742.527l.407.613c.425.647.863,1.315,1.308,1.961A1.568,1.568,0,0,1,6.1,4.76c-.079.174-.169.334-.257.49l-.111.2c-.083.148-.165.3-.251.445l.279.334c.251.3.512.616.779.9A20.008,20.008,0,0,0,8.925,9.361c.315-.183.644-.367,1.005-.563a1.673,1.673,0,0,1,1.206-.209,1.275,1.275,0,0,1,.413.175q1.379.907,2.751,1.822a1.375,1.375,0,0,1,.469,1.584h0a1.458,1.458,0,0,1-.2.411,8.88,8.88,0,0,1-1.688,1.8,3.1,3.1,0,0,1-.445.279l-.166.092Zm-.518-.952H11.9l.08-.043a2.3,2.3,0,0,0,.315-.193,7.976,7.976,0,0,0,1.5-1.618.558.558,0,0,0,.065-.148.453.453,0,0,0-.092-.494q-1.37-.913-2.745-1.817a.331.331,0,0,0-.1-.043.756.756,0,0,0-.542.113c-.4.215-.757.417-1.094.616a.7.7,0,0,1-.823-.048,20.6,20.6,0,0,1-2.619-2.42c-.287-.307-.555-.631-.815-.944-.138-.162-.278-.322-.408-.483a.637.637,0,0,1-.058-.782c.117-.193.226-.389.334-.584l.116-.206c.082-.148.157-.279.218-.414a.625.625,0,0,0-.043-.7c-.445-.655-.891-1.329-1.32-1.979l-.4-.609a.27.27,0,0,0-.18-.125.594.594,0,0,0-.549.11c-.3.242-.622.5-.918.775A3.543,3.543,0,0,0,.952,2.9v.288c.013.064.025.128.037.192.031.166.061.322.1.471A8.549,8.549,0,0,0,2.344,6.411,21.777,21.777,0,0,0,5.081,9.657a21.41,21.41,0,0,0,3.584,2.989,8.071,8.071,0,0,0,2.417,1.118c.131.033.264.056.4.08Z" transform="translate(0 0.026)" fill="#949494"/>
    </g>
  </g>
</svg>
