<svg xmlns="http://www.w3.org/2000/svg" width="24" height="24" viewBox="0 0 24 24">
  <g id="favourit_tab" transform="translate(-7 4.727)">
    <rect id="Rectangle_29226" data-name="Rectangle 29226" width="24" height="24" transform="translate(7 -4.727)" fill="#dcdcdc" opacity="0"/>
    <path id="heart_1_" data-name="heart (1)" d="M11.361,20.818a1.31,1.31,0,0,1-.878-.34c-.918-.827-1.8-1.6-2.584-2.288l0,0a48.668,48.668,0,0,1-5.641-5.453A8.852,8.852,0,0,1,0,7.032,7.441,7.441,0,0,1,1.8,2.037,6.03,6.03,0,0,1,6.348,0a5.611,5.611,0,0,1,3.57,1.269,7.431,7.431,0,0,1,1.443,1.552A7.431,7.431,0,0,1,12.8,1.269,5.611,5.611,0,0,1,16.375,0,6.03,6.03,0,0,1,20.92,2.037a7.441,7.441,0,0,1,1.8,4.995,8.851,8.851,0,0,1-2.254,5.7,48.663,48.663,0,0,1-5.641,5.453c-.782.686-1.669,1.464-2.589,2.293a1.311,1.311,0,0,1-.878.34ZM6.348,1.371a4.731,4.731,0,0,0-3.567,1.6,6.054,6.054,0,0,0-1.45,4.066,7.445,7.445,0,0,0,1.948,4.826,47.888,47.888,0,0,0,5.48,5.284l0,0c.784.688,1.672,1.468,2.6,2.3.93-.834,1.82-1.615,2.605-2.3a47.9,47.9,0,0,0,5.48-5.284,7.446,7.446,0,0,0,1.947-4.826,6.054,6.054,0,0,0-1.45-4.066,4.73,4.73,0,0,0-3.567-1.6,4.334,4.334,0,0,0-2.756.983,6.6,6.6,0,0,0-1.536,1.83.828.828,0,0,1-1.443,0A6.6,6.6,0,0,0,9.1,2.353a4.334,4.334,0,0,0-2.756-.983Zm0,0" transform="translate(7.639 -3.135)" fill="#bcbcbc" stroke="#bcbcbc" stroke-width="0.3"/>
  </g>
</svg>
