<svg xmlns="http://www.w3.org/2000/svg" width="36" height="36" viewBox="0 0 36 36">
  <g id="heart" transform="translate(0.336 0.337)">
    <g id="Shop_Now" data-name="Shop Now" transform="translate(0 0)">
      <g id="Rectangle_1909" data-name="Rectangle 1909" transform="translate(-0.336 -0.336)" fill="#fff" stroke="#e8e8e8" stroke-width="2">
        <rect width="36" height="36" rx="18" stroke="none"/>
        <rect x="1" y="1" width="34" height="34" rx="17" fill="none"/>
      </g>
    </g>
    <path id="heartt" d="M9.121,16.712a1.052,1.052,0,0,1-.705-.273c-.737-.664-1.447-1.287-2.074-1.837l0,0a39.07,39.07,0,0,1-4.529-4.377A7.106,7.106,0,0,1,0,5.645a5.973,5.973,0,0,1,1.447-4.01A4.841,4.841,0,0,1,5.1,0,4.5,4.5,0,0,1,7.962,1.019,5.965,5.965,0,0,1,9.121,2.265,5.966,5.966,0,0,1,10.28,1.019,4.5,4.5,0,0,1,13.146,0a4.841,4.841,0,0,1,3.649,1.636,5.973,5.973,0,0,1,1.447,4.01,7.105,7.105,0,0,1-1.809,4.577A39.066,39.066,0,0,1,11.9,14.6c-.628.551-1.34,1.175-2.078,1.841a1.053,1.053,0,0,1-.705.273ZM5.1,1.1A3.8,3.8,0,0,0,2.233,2.381,4.86,4.86,0,0,0,1.068,5.645,5.977,5.977,0,0,0,2.632,9.52a38.444,38.444,0,0,0,4.4,4.242l0,0c.629.552,1.342,1.178,2.085,1.847.747-.67,1.461-1.3,2.092-1.85a38.454,38.454,0,0,0,4.4-4.242,5.978,5.978,0,0,0,1.563-3.875,4.86,4.86,0,0,0-1.164-3.264A3.8,3.8,0,0,0,13.146,1.1a3.479,3.479,0,0,0-2.213.789A5.3,5.3,0,0,0,9.7,3.359a.665.665,0,0,1-1.159,0A5.3,5.3,0,0,0,7.308,1.889,3.479,3.479,0,0,0,5.1,1.1Zm0,0" transform="translate(8.543 9.308)" fill="#949494" stroke="#949494" stroke-width="0.3"/>
  </g>
</svg>
