<svg xmlns="http://www.w3.org/2000/svg" width="22.028" height="23.234" viewBox="0 0 22.028 23.234">
  <g id="home_tab" transform="translate(-7.801 4.228)">
    <rect id="Rectangle_26385" data-name="Rectangle 26385" width="22" height="22" transform="translate(7.805 -3.549)" fill="#dcdcdc" opacity="0"/>
    <path id="home_5_" data-name="home (5)" d="M7.192,20.28V16.967a1.541,1.541,0,0,1,1.538-1.533h3.118A1.541,1.541,0,0,1,13.4,16.967h0v3.323a1.323,1.323,0,0,0,1.3,1.317h2.079a3.733,3.733,0,0,0,3.752-3.715h0V8.468A2.635,2.635,0,0,0,19.488,6.41L12.379.74a3.436,3.436,0,0,0-4.261,0L1.039,6.42A2.615,2.615,0,0,0,0,8.478v9.415a3.733,3.733,0,0,0,3.752,3.715H5.831A1.334,1.334,0,0,0,7.172,20.28h0" transform="translate(8.551 -3.352)" fill="none" stroke="#ffad1e" stroke-linecap="round" stroke-linejoin="round" stroke-width="1.5"/>
  </g>
</svg>
