<svg xmlns="http://www.w3.org/2000/svg" width="37.242" height="37.276" viewBox="0 0 37.242 37.276">
  <g id="house" transform="translate(-0.5 -0.493)">
    <path id="Path_48039" data-name="Path 48039" d="M34.5,11.806,20.788,1.706a3.589,3.589,0,0,0-4.275,0L2.8,11.806A4.367,4.367,0,0,0,1,15.355V32.888A3.415,3.415,0,0,0,4.412,36.3h8.472V23.082a1.728,1.728,0,0,1,1.726-1.726h8.119a1.728,1.728,0,0,1,1.726,1.726V36.3h8.472a3.415,3.415,0,0,0,3.412-3.412V15.355A4.514,4.514,0,0,0,34.5,11.806Z" transform="translate(0.481 0.488)" fill="#e8e8e8"/>
    <path id="Path_48040" data-name="Path 48040" d="M18.984,13.152H10.864a1.728,1.728,0,0,0-1.726,1.726V28.1H1v.314A3.411,3.411,0,0,0,4.412,31.8h8.472V18.584a1.728,1.728,0,0,1,1.726-1.726h6.119v-2A1.754,1.754,0,0,0,18.984,13.152ZM34.5,7.308,32.3,5.68a4.534,4.534,0,0,1,.275,1.451V24.664a3.415,3.415,0,0,1-3.412,3.412H24.416V31.8h8.472A3.415,3.415,0,0,0,36.3,28.39V10.857A4.367,4.367,0,0,0,34.5,7.308Z" transform="translate(0.481 4.986)" fill="#fff" opacity="0.2"/>
    <path id="Path_48041" data-name="Path 48041" d="M33.369,37.769H24.9a.971.971,0,0,1-.981-.981V23.57a.745.745,0,0,0-.745-.745h-8.1a.745.745,0,0,0-.745.745V36.788a.971.971,0,0,1-.981.981H4.893A4.4,4.4,0,0,1,.5,33.376V15.843A5.452,5.452,0,0,1,2.7,11.49L16.4,1.39a4.56,4.56,0,0,1,5.432,0l13.708,10.1a5.424,5.424,0,0,1,2.2,4.354V33.376A4.357,4.357,0,0,1,33.369,37.769ZM25.9,35.808h7.492a2.444,2.444,0,0,0,2.432-2.432V15.843a3.493,3.493,0,0,0-1.392-2.765h0L20.719,2.978a2.589,2.589,0,0,0-3.1,0L3.854,13.078a3.493,3.493,0,0,0-1.392,2.765V33.376a2.444,2.444,0,0,0,2.432,2.432h7.492V23.57a2.712,2.712,0,0,1,2.706-2.706H23.21a2.712,2.712,0,0,1,2.706,2.706V35.808Z" transform="translate(0 0)" fill="#949494"/>
  </g>
</svg>
