<svg id="logout" xmlns="http://www.w3.org/2000/svg" width="30" height="30" viewBox="0 0 30 30">
  <circle id="Ellipse_6186" data-name="Ellipse 6186" cx="15" cy="15" r="15" fill="rgba(239,57,57,0.1)"/>
  <g id="Layer_15" data-name="Layer 15" transform="translate(6.969 8.117)">
    <path id="Path_30155" data-name="Path 30155" d="M9.018,14.374a.669.669,0,0,1,.669.669v2.008h3.347V7.681H9.687V9.689a.669.669,0,0,1-1.339,0V7.681A1.339,1.339,0,0,1,9.687,6.342h3.347a1.334,1.334,0,0,1,1.707-1.278l3.347.991a1.339,1.339,0,0,1,.971,1.3V17.392a1.339,1.339,0,0,1-.964,1.339l-3.347.991a1.343,1.343,0,0,1-1.713-1.332H9.687a1.339,1.339,0,0,1-1.339-1.339V15.043A.669.669,0,0,1,9.018,14.374Zm8.7,3.005V7.34l-3.347-1V18.39Zm-3.166,1.68-.181-.669h0Zm-9.5-6.921a.669.669,0,0,1,.147-.221l1.339-1.339a.669.669,0,0,1,.944.944l-.194.194h3.072a.669.669,0,1,1,0,1.339H7.284l.194.194a.669.669,0,1,1-.944.944L5.2,12.855a.669.669,0,0,1-.147-.73Z" transform="translate(-4.998 -5.011)" fill="#ef3939"/>
  </g>
</svg>
