<svg id="money" xmlns="http://www.w3.org/2000/svg" width="25.331" height="23.441" viewBox="0 0 25.331 23.441">
  <path id="Path_29595" data-name="Path 29595" d="M24.18,38.241H1.151A1.155,1.155,0,0,1,0,37.089V24.423a1.155,1.155,0,0,1,1.151-1.151H24.18a1.155,1.155,0,0,1,1.151,1.151V37.089A1.155,1.155,0,0,1,24.18,38.241Z" transform="translate(0 -23.272)" fill="#0e9347"/>
  <path id="Path_29596" data-name="Path 29596" d="M254.681,232.727a3.853,3.853,0,0,0-3.224,1.67,4.3,4.3,0,0,0-1.957-.518,4.028,4.028,0,0,0-3.972,3.454h12.032a1.171,1.171,0,0,0,1.151-.979A4.1,4.1,0,0,0,254.681,232.727Z" transform="translate(-233.379 -222.364)" fill="#0d8944"/>
  <path id="Path_29597" data-name="Path 29597" d="M44,59.212H25.576a2.31,2.31,0,0,0-2.3-2.3v-8.06a2.31,2.31,0,0,0,2.3-2.3H44a2.31,2.31,0,0,0,2.3,2.3v8.06A2.31,2.31,0,0,0,44,59.212Z" transform="translate(-22.122 -45.395)" fill="#3bb54a"/>
  <g id="Group_26811" data-name="Group 26811" transform="translate(5.127 2.565)">
    <path id="Path_29598" data-name="Path 29598" d="M261.317,232.727a3.853,3.853,0,0,0-3.224,1.67,4.3,4.3,0,0,0-1.957-.518,3.955,3.955,0,0,0-3.627,2.3h9.384a2.3,2.3,0,0,1,2.245-2.3A4.162,4.162,0,0,0,261.317,232.727Z" transform="translate(-245.143 -224.93)" fill="#0e9347"/>
    <circle id="Ellipse_6286" data-name="Ellipse 6286" cx="4.846" cy="4.846" r="4.846" transform="translate(2.237)" fill="#0e9347"/>
    <circle id="Ellipse_6287" data-name="Ellipse 6287" cx="0.746" cy="0.746" r="0.746" transform="translate(0 4.473)" fill="#0e9347"/>
    <ellipse id="Ellipse_6288" data-name="Ellipse 6288" cx="0.373" cy="0.746" rx="0.373" ry="0.746" transform="translate(13.42 4.473)" fill="#0e9347"/>
  </g>
  <path id="Path_29599" data-name="Path 29599" d="M212.334,107.607h-1.151a.576.576,0,0,1,0-1.151h1.727a.576.576,0,0,0,0-1.151h-.576a.576.576,0,0,0-1.151,0,1.727,1.727,0,0,0,0,3.454h1.151a.576.576,0,1,1,0,1.151h-1.727a.576.576,0,0,0,0,1.151h.576a.576.576,0,0,0,1.151,0,1.727,1.727,0,1,0,0-3.454Z" transform="translate(-199.092 -100.699)" fill="#89c763"/>
  <ellipse id="Ellipse_6289" data-name="Ellipse 6289" cx="4.473" cy="3.355" rx="4.473" ry="3.355" transform="translate(10.346 11.512)" fill="#ffca5d"/>
  <ellipse id="Ellipse_6290" data-name="Ellipse 6290" cx="4.473" cy="3.728" rx="4.473" ry="3.728" transform="translate(15.564 10.767)" fill="#f6b545"/>
  <path id="Path_29600" data-name="Path 29600" d="M329.848,232.727a4.03,4.03,0,1,0,4.03,4.03A4.005,4.005,0,0,0,329.848,232.727Zm0,6.909a2.879,2.879,0,1,1,2.879-2.879A2.851,2.851,0,0,1,329.848,239.636Z" transform="translate(-309.698 -222.364)" fill="#ffcb5b"/>
  <path id="Path_29601" data-name="Path 29601" d="M407.273,318.154h0a3.957,3.957,0,0,0,4.03-3.972h-.058a.612.612,0,0,0-.576.518,3.48,3.48,0,0,1-1.094,2.073,3.262,3.262,0,0,1-1.785.864A.516.516,0,0,0,407.273,318.154Z" transform="translate(-387.123 -299.789)" fill="#f6b545"/>
  <path id="Path_29602" data-name="Path 29602" d="M329.848,233.866h0a3.957,3.957,0,0,0-4.03,3.972h.058a.612.612,0,0,0,.576-.518,3.481,3.481,0,0,1,1.094-2.073,3.263,3.263,0,0,1,1.785-.864A.516.516,0,0,0,329.848,233.866Z" transform="translate(-309.698 -223.445)" fill="#ffe27a"/>
  <path id="Path_29603" data-name="Path 29603" d="M349.494,259.282a2.851,2.851,0,0,1,2.879-2.879,2.716,2.716,0,0,1,1.842.691,2.87,2.87,0,0,0-5.124,1.785,2.76,2.76,0,0,0,1.036,2.188A2.7,2.7,0,0,1,349.494,259.282Z" transform="translate(-331.82 -244.486)" fill="#f19920"/>
  <path id="Path_29604" data-name="Path 29604" d="M437.2,310.437a.211.211,0,0,1-.173-.058.278.278,0,0,1,0-.4,1.921,1.921,0,0,0,.518-1.324.288.288,0,0,1,.576,0,2.658,2.658,0,0,1-.633,1.727A.626.626,0,0,1,437.2,310.437Z" transform="translate(-415.328 -294.259)" fill="#ffcb5b"/>
  <g id="Group_26812" data-name="Group 26812" transform="translate(16.178 11.514)">
    <path id="Path_29605" data-name="Path 29605" d="M396.213,282.728a.544.544,0,0,1-.576-.576v-2.3a.576.576,0,0,1,1.151,0v2.3A.544.544,0,0,1,396.213,282.728Z" transform="translate(-392.24 -278.123)" fill="#f19920"/>
    <path id="Path_29606" data-name="Path 29606" d="M333.084,262.275a4.677,4.677,0,0,0-2.763-3.109A4.813,4.813,0,0,0,328.132,256a4.162,4.162,0,0,0-1.151,2.821,4.005,4.005,0,0,0,4.03,4.03A3.338,3.338,0,0,0,333.084,262.275Z" transform="translate(-326.981 -256)" fill="#f19920"/>
  </g>
  <g id="Group_26813" data-name="Group 26813" transform="translate(17.271 12.263)">
    <path id="Path_29607" data-name="Path 29607" d="M350.126,275.446a3.028,3.028,0,0,1-.691-1.842,2.787,2.787,0,0,1,.921-2.073,2.5,2.5,0,0,0-.345-.4,2.82,2.82,0,0,0-.921,2.13A2.76,2.76,0,0,0,350.126,275.446Z" transform="translate(-349.09 -271.128)" fill="#e78825"/>
    <path id="Path_29608" data-name="Path 29608" d="M395.636,321.164v.806a.576.576,0,0,0,1.151,0v-.115A4.7,4.7,0,0,0,395.636,321.164Z" transform="translate(-393.333 -318.688)" fill="#e78825"/>
  </g>
  <path id="Path_29609" data-name="Path 29609" d="M331.978,263.38a3.681,3.681,0,0,0-.461-1.094,2.786,2.786,0,0,1-1.67.576,2.851,2.851,0,0,1-2.879-2.879,2.821,2.821,0,0,1,.921-2.13,3.511,3.511,0,0,0-.921-.691,4.162,4.162,0,0,0-1.151,2.821,4.005,4.005,0,0,0,4.03,4.03A3.859,3.859,0,0,0,331.978,263.38Z" transform="translate(-309.698 -245.59)" fill="#f6b545"/>
  <path id="Path_29610" data-name="Path 29610" d="M409.229,372.364a3.98,3.98,0,0,1-1.439.576.612.612,0,0,0-.518.576h0a3.86,3.86,0,0,0,2.13-.633Z" transform="translate(-387.122 -355.093)" fill="#f19920"/>
  <path id="Path_29611" data-name="Path 29611" d="M326.969,257.164a4.161,4.161,0,0,0-1.151,2.821h.058a.612.612,0,0,0,.576-.518,3.582,3.582,0,0,1,1.036-2.015A2.337,2.337,0,0,1,326.969,257.164Z" transform="translate(-309.698 -245.592)" fill="#ffcb5b"/>
  <ellipse id="Ellipse_6291" data-name="Ellipse 6291" cx="4.473" cy="3.355" rx="4.473" ry="3.355" transform="translate(10.346 11.512)" fill="#f6b545"/>
  <path id="Path_29612" data-name="Path 29612" d="M290.909,318.211a3.989,3.989,0,0,0,.173,1.151h.4a4.016,4.016,0,0,0,3.857-5.181h-.4A4.005,4.005,0,0,0,290.909,318.211Z" transform="translate(-276.516 -299.788)" fill="#f19920"/>
  <path id="Path_29613" data-name="Path 29613" d="M225.12,256a4.03,4.03,0,1,0,4.03,4.03A4.005,4.005,0,0,0,225.12,256Zm0,6.909A2.879,2.879,0,1,1,228,260.03,2.851,2.851,0,0,1,225.12,262.909Z" transform="translate(-210.152 -244.486)" fill="#ffcb5b"/>
  <path id="Path_29614" data-name="Path 29614" d="M302.545,341.427h0a3.957,3.957,0,0,0,4.03-3.972h-.058a.612.612,0,0,0-.576.518,3.481,3.481,0,0,1-1.094,2.073,3.262,3.262,0,0,1-1.785.864A.516.516,0,0,0,302.545,341.427Z" transform="translate(-287.576 -321.911)" fill="#f6b545"/>
  <path id="Path_29615" data-name="Path 29615" d="M225.12,257.139h0a3.957,3.957,0,0,0-4.03,3.972h.058a.612.612,0,0,0,.576-.518,3.481,3.481,0,0,1,1.094-2.073,3.263,3.263,0,0,1,1.785-.864A.516.516,0,0,0,225.12,257.139Z" transform="translate(-210.152 -245.567)" fill="#ffe27a"/>
  <path id="Path_29616" data-name="Path 29616" d="M244.766,282.555a2.851,2.851,0,0,1,2.879-2.879,2.715,2.715,0,0,1,1.842.691,2.87,2.87,0,0,0-5.124,1.785,2.76,2.76,0,0,0,1.036,2.188A2.7,2.7,0,0,1,244.766,282.555Z" transform="translate(-232.273 -266.607)" fill="#f19920"/>
  <path id="Path_29617" data-name="Path 29617" d="M332.478,333.709a.211.211,0,0,1-.173-.058.278.278,0,0,1,0-.4,1.921,1.921,0,0,0,.518-1.324.288.288,0,0,1,.576,0,2.658,2.658,0,0,1-.633,1.727A.625.625,0,0,1,332.478,333.709Z" transform="translate(-315.782 -316.38)" fill="#ffcb5b"/>
  <path id="Path_29618" data-name="Path 29618" d="M291.485,306a.544.544,0,0,1-.576-.576v-2.3a.576.576,0,0,1,1.151,0v2.3A.544.544,0,0,1,291.485,306Z" transform="translate(-276.516 -288.73)" fill="#f19920"/>
  <g id="Group_26814" data-name="Group 26814" transform="translate(13.328 14.393)">
    <path id="Path_29619" data-name="Path 29619" d="M294.134,314.239a3.368,3.368,0,0,1,.23,1.094,2.851,2.851,0,0,1-2.879,2.879,1.959,1.959,0,0,1-.576-.058v.058a3.99,3.99,0,0,0,.173,1.151h.4a4.016,4.016,0,0,0,3.857-5.181h-.4A3.8,3.8,0,0,0,294.134,314.239Z" transform="translate(-289.845 -314.181)" fill="#f6b545"/>
    <ellipse id="Ellipse_6292" data-name="Ellipse 6292" cx="4.101" cy="4.473" rx="4.101" ry="4.473" transform="translate(0 0.102)" fill="#f6b545"/>
  </g>
  <path id="Path_29620" data-name="Path 29620" d="M283.3,325.818a4.03,4.03,0,1,0,4.03,4.03A4.005,4.005,0,0,0,283.3,325.818Zm0,6.909a2.879,2.879,0,1,1,2.879-2.879A2.851,2.851,0,0,1,283.3,332.727Z" transform="translate(-265.455 -310.849)" fill="#ffcb5b"/>
  <path id="Path_29621" data-name="Path 29621" d="M360.727,411.245h0a3.957,3.957,0,0,0,4.03-3.972H364.7a.612.612,0,0,0-.576.518,3.48,3.48,0,0,1-1.094,2.073,3.262,3.262,0,0,1-1.785.864A.516.516,0,0,0,360.727,411.245Z" transform="translate(-342.88 -388.274)" fill="#f6b545"/>
  <path id="Path_29622" data-name="Path 29622" d="M283.3,326.957h0a3.957,3.957,0,0,0-4.03,3.972h.058a.612.612,0,0,0,.576-.518A3.481,3.481,0,0,1,281,328.338a3.262,3.262,0,0,1,1.785-.864A.516.516,0,0,0,283.3,326.957Z" transform="translate(-265.455 -311.931)" fill="#ffe27a"/>
  <path id="Path_29623" data-name="Path 29623" d="M302.948,352.373a2.851,2.851,0,0,1,2.879-2.879,2.716,2.716,0,0,1,1.842.691,2.87,2.87,0,0,0-5.124,1.785,2.76,2.76,0,0,0,1.036,2.188A2.7,2.7,0,0,1,302.948,352.373Z" transform="translate(-287.576 -332.971)" fill="#f19920"/>
  <path id="Path_29624" data-name="Path 29624" d="M390.659,403.527a.211.211,0,0,1-.173-.058.278.278,0,0,1,0-.4,1.922,1.922,0,0,0,.518-1.324.288.288,0,1,1,.576,0,2.658,2.658,0,0,1-.633,1.727A.625.625,0,0,1,390.659,403.527Z" transform="translate(-371.085 -382.743)" fill="#ffcb5b"/>
  <path id="Path_29625" data-name="Path 29625" d="M349.667,375.818a.544.544,0,0,1-.576-.576v-2.3a.576.576,0,1,1,1.151,0v2.3A.544.544,0,0,1,349.667,375.818Z" transform="translate(-331.82 -355.093)" fill="#f19920"/>
</svg>
