<svg id="noun_Package_234580" xmlns="http://www.w3.org/2000/svg" width="8.027" height="8.01" viewBox="0 0 8.027 8.01">
  <g id="Group_19205" data-name="Group 19205" transform="translate(0 0)">
    <g id="Group_19203" data-name="Group 19203">
      <path id="Path_22851" data-name="Path 22851" d="M8.169,8.51H.841A.342.342,0,0,1,.5,8.169V.841A.342.342,0,0,1,.841.5H8.186a.342.342,0,0,1,.341.341V8.186A.368.368,0,0,1,8.169,8.51Zm-7-.665H7.845V1.165H1.165Z" transform="translate(-0.5 -0.5)" fill="#ffad1e"/>
    </g>
    <g id="Group_19204" data-name="Group 19204" transform="translate(2.42)">
      <path id="Path_22852" data-name="Path 22852" d="M15.024,3.482a.256.256,0,0,1-.187-.068.356.356,0,0,1-.136-.273V.841A.342.342,0,0,1,15.041.5h2.437a.342.342,0,0,1,.341.341v2.3a.356.356,0,0,1-.136.273.33.33,0,0,1-.307.051L16.268,3.09l-1.108.375C15.092,3.465,15.058,3.482,15.024,3.482Zm.341-2.318v1.5l.784-.273a.486.486,0,0,1,.222,0l.784.273v-1.5Z" transform="translate(-14.7 -0.5)" fill="#ffad1e"/>
    </g>
  </g>
</svg>
