<svg xmlns="http://www.w3.org/2000/svg" width="24.95" height="24.948" viewBox="0 0 24.95 24.948">
  <g id="noun_cart" transform="translate(0 0)">
    <g id="Group_4009" data-name="Group 4009" transform="translate(0 0)">
      <g id="Group_4008" data-name="Group 4008">
        <g id="Group_4007" data-name="Group 4007">
          <path id="Path_1174" data-name="Path 1174" d="M8.808,21.2a1.871,1.871,0,1,0,1.87,1.871A1.871,1.871,0,0,0,8.808,21.2Zm11.155,0a1.871,1.871,0,1,0,1.87,1.871A1.871,1.871,0,0,0,19.963,21.2ZM1.322,0H0A1.356,1.356,0,0,1,.012.225V2.5h1.3a2.466,2.466,0,0,1,1.77.736,2.957,2.957,0,0,1,.312.362A2.573,2.573,0,0,1,3.815,5V9.456h.006v4.26A4.992,4.992,0,0,0,8.812,18.71H19.96a4.993,4.993,0,0,0,4.991-4.994V6.966H22.457v6.75a2.5,2.5,0,0,1-2.5,2.5H8.812a2.5,2.5,0,0,1-2.5-2.5V9.461H17.47v-2.5H6.308V4.99A4.987,4.987,0,0,0,1.322,0Z" transform="translate(0 0)" fill="#fff"/>
        </g>
      </g>
    </g>
  </g>
</svg>
