<svg xmlns="http://www.w3.org/2000/svg" width="24.441" height="24.441" viewBox="0 0 24.441 24.441">
  <g id="order_tab" transform="translate(-8.779 4.451)">
    <rect id="Rectangle_29225" data-name="Rectangle 29225" width="24" height="24" transform="translate(9 -4.23)" fill="#dcdcdc" opacity="0"/>
    <g id="vuesax_outline_box" data-name="vuesax/outline/box" transform="translate(9 -5.23)">
      <g id="Group_80432" data-name="Group 80432" transform="translate(-0.221 0.779)">
        <path id="Vector" d="M9.757,6.735a.759.759,0,0,1-.387-.1L.378,1.429A.775.775,0,0,1,.1.38.766.766,0,0,1,1.152.105l8.605,4.98L18.312.136a.775.775,0,0,1,1.049.275.775.775,0,0,1-.275,1.049L10.155,6.633A.957.957,0,0,1,9.757,6.735Z" transform="translate(2.464 6.809)" fill="#bcbcbc"/>
        <path id="Vector-2" data-name="Vector" d="M.764,10.764A.769.769,0,0,1,0,10V.764A.769.769,0,0,1,.764,0a.769.769,0,0,1,.764.764V10A.769.769,0,0,1,.764,10.764Z" transform="translate(11.457 12.006)" fill="#bcbcbc"/>
        <path id="Vector-3" data-name="Vector" d="M10.551,21.9a5.232,5.232,0,0,1-2.485-.58L2.627,18.29A5.543,5.543,0,0,1,0,13.82V8.066A5.558,5.558,0,0,1,2.627,3.595L8.066.58a5.609,5.609,0,0,1,4.97,0l5.438,3.025A5.543,5.543,0,0,1,21.1,8.076V13.83A5.558,5.558,0,0,1,18.474,18.3l-5.438,3.014A5.232,5.232,0,0,1,10.551,21.9Zm0-20.368a3.753,3.753,0,0,0-1.741.387L3.371,4.939A4.075,4.075,0,0,0,1.528,8.066V13.82a4.11,4.11,0,0,0,1.843,3.137l5.438,3.025a4.087,4.087,0,0,0,3.483,0l5.438-3.025a4.094,4.094,0,0,0,1.843-3.137V8.066A4.11,4.11,0,0,0,17.73,4.929L12.292,1.9A3.884,3.884,0,0,0,10.551,1.528Z" transform="translate(1.671 1.273)" fill="#bcbcbc"/>
        <path id="Vector-4" data-name="Vector" d="M0,0H24.441V24.441H0Z" fill="none" opacity="0"/>
      </g>
    </g>
  </g>
</svg>
