<svg id="saudi" xmlns="http://www.w3.org/2000/svg" width="26.963" height="17.666" viewBox="0 0 26.963 17.666">
  <path id="Path_11584" data-name="Path 11584" d="M24.944,105.942H2.019A2.019,2.019,0,0,1,0,103.922V90.3a2.019,2.019,0,0,1,2.019-2.019H24.944A2.019,2.019,0,0,1,26.963,90.3v13.627A2.019,2.019,0,0,1,24.944,105.942Z" transform="translate(0 -88.276)" fill="#73af00"/>
  <g id="Group_11340" data-name="Group 11340" transform="translate(5.331 3.719)">
    <path id="Path_11585" data-name="Path 11585" d="M102.4,167.976c.046.294.223.386.378.374a.379.379,0,0,0,.342-.356v-1.008a.092.092,0,0,1,.183,0V168a.366.366,0,0,0,.5.34l.092-.037c.008.846-.043,1.59-.044,1.6a.183.183,0,0,0,.17.2h.013a.183.183,0,0,0,.183-.17c0-.06.061-.874.044-1.776l.055-.022a.184.184,0,0,1,.15.006.523.523,0,0,0,.6-.1l.033-.033a.547.547,0,0,0,.133-.563l-.156-.468a.183.183,0,0,0,.136-.339l-.366-.183a.183.183,0,0,0-.256.222l.295.885a.182.182,0,0,1-.044.188l-.033.033a.157.157,0,0,1-.181.029.548.548,0,0,0-.381-.038,6.32,6.32,0,0,0-.224-1.579.183.183,0,0,0-.348.116,6.3,6.3,0,0,1,.21,1.6l-.219.088v-1.012a.458.458,0,1,0-.916,0v.887l-.187-.923a.183.183,0,1,0-.359.073Z" transform="translate(-102.147 -165.691)" fill="#f5f5f5"/>
    <path id="Path_11586" data-name="Path 11586" d="M109.343,163.144a.183.183,0,0,0,.183-.183v-.183a.183.183,0,1,0-.367,0v.183A.183.183,0,0,0,109.343,163.144Z" transform="translate(-108.742 -162.399)" fill="#f5f5f5"/>
    <path id="Path_11587" data-name="Path 11587" d="M144.14,162.96h.183a.183.183,0,1,0,0-.367h-.183a.183.183,0,1,0,0,.367Z" transform="translate(-141.707 -162.399)" fill="#f5f5f5"/>
    <path id="Path_11588" data-name="Path 11588" d="M106.684,214.815l-.916.55a.183.183,0,1,0,.189.314l.916-.55a.183.183,0,1,0-.189-.314Z" transform="translate(-105.445 -211.846)" fill="#f5f5f5"/>
    <path id="Path_11589" data-name="Path 11589" d="M118.971,168.988l0,0a.418.418,0,0,0,.085.172.36.36,0,0,0,.312.121.505.505,0,0,0,.381-.2.33.33,0,0,0,.039.023.347.347,0,0,0,.323-.01.7.7,0,0,0,.328-.645.187.187,0,0,0-.191-.174.184.184,0,0,0-.175.19s0,.22-.129.3a.446.446,0,0,1-.057-.154.183.183,0,0,0-.364.03c0,.027-.006.262-.188.281a.448.448,0,0,1,0-.24.183.183,0,0,0-.281-.194l-.1.07c-.049-1.063-.16-2.3-.162-2.317a.183.183,0,1,0-.365.033c0,.017.131,1.45.171,2.544l-.028.027a.472.472,0,0,0-.4-.315.669.669,0,0,0-.645.408.433.433,0,0,0,.14.547.611.611,0,0,0,.547.025,1.533,1.533,0,0,1-.3.565.769.769,0,0,1-.585.3.482.482,0,0,1-.356-.152,1.046,1.046,0,0,1-.194-.656.183.183,0,0,0-.173-.193.18.18,0,0,0-.193.173,1.406,1.406,0,0,0,.288.921.84.84,0,0,0,.613.272h.037a1.117,1.117,0,0,0,.841-.426,1.9,1.9,0,0,0,.42-.939,2.077,2.077,0,0,1-.879,1.645.915.915,0,0,1-.918.067.786.786,0,0,1-.4-.775.183.183,0,0,0-.364-.045,1.151,1.151,0,0,0,.6,1.149,1.246,1.246,0,0,0,.555.132,1.356,1.356,0,0,0,.719-.217,2.436,2.436,0,0,0,1.052-1.958C118.977,169.253,118.975,169.124,118.971,168.988Zm-1.1.189c-.033-.022-.007-.091,0-.1a.311.311,0,0,1,.256-.18h.015c.023,0,.086.008.112.146,0,.015.005.03.007.045C118.05,169.2,117.913,169.208,117.866,169.177Z" transform="translate(-115.26 -165.694)" fill="#f5f5f5"/>
    <path id="Path_11590" data-name="Path 11590" d="M101.918,243.391a.184.184,0,0,0-.251.065.375.375,0,0,1-.031.043l-.006-.015a1.232,1.232,0,0,1,.005-.622.183.183,0,0,0-.354-.094,1.578,1.578,0,0,0,.005.845c.084.224.213.281.307.288h.025a.481.481,0,0,0,.365-.262A.183.183,0,0,0,101.918,243.391Z" transform="translate(-101.225 -238.223)" fill="#f5f5f5"/>
    <path id="Path_11591" data-name="Path 11591" d="M175.312,164.243a.182.182,0,0,0,.113-.039l.924-.725a.177.177,0,0,0,.03-.035.459.459,0,1,0-.527-.041l-.654.513a.183.183,0,0,0,.113.327Zm.832-1.283a.092.092,0,1,1-.092.092A.092.092,0,0,1,176.144,162.96Z" transform="translate(-171.237 -162.399)" fill="#f5f5f5"/>
    <path id="Path_11592" data-name="Path 11592" d="M185.42,190.441a.183.183,0,0,0-.232.116.56.56,0,0,0,.071.54.37.37,0,0,0,.274.1.8.8,0,0,0,.253-.047.183.183,0,1,0-.116-.348.633.633,0,0,1-.15.032.351.351,0,0,1,.015-.168A.183.183,0,0,0,185.42,190.441Z" transform="translate(-180.729 -188.771)" fill="#f5f5f5"/>
    <path id="Path_11593" data-name="Path 11593" d="M227.747,163.173a.183.183,0,0,0,.227-.125l.107-.366a.183.183,0,1,0-.352-.1l-.107.366A.183.183,0,0,0,227.747,163.173Z" transform="translate(-220.959 -162.26)" fill="#f5f5f5"/>
    <path id="Path_11594" data-name="Path 11594" d="M206,159.789a.183.183,0,1,0,.185-.316c-.037-.021-.032-.082-.03-.094a.144.144,0,0,1,.084-.122.183.183,0,0,0-.109-.35.5.5,0,0,0-.339.431A.452.452,0,0,0,206,159.789Z" transform="translate(-200.283 -158.897)" fill="#f5f5f5"/>
    <path id="Path_11595" data-name="Path 11595" d="M178.937,232.189a.183.183,0,0,0-.034.363.345.345,0,0,1,.034.186.183.183,0,0,0,.367,0C179.3,232.2,178.952,232.189,178.937,232.189Z" transform="translate(-174.671 -228.329)" fill="#f5f5f5"/>
    <path id="Path_11596" data-name="Path 11596" d="M234.791,208.354a.423.423,0,0,0,.069.006.626.626,0,0,0,.434-.217.183.183,0,1,0-.259-.259c-.11.11-.169.112-.184.109-.035-.005-.067-.051-.074-.063a.183.183,0,0,0-.327.166A.5.5,0,0,0,234.791,208.354Z" transform="translate(-227.416 -205.253)" fill="#f5f5f5"/>
    <path id="Path_11597" data-name="Path 11597" d="M293.945,190.947l0-.008a.183.183,0,0,0-.347.117.41.41,0,0,0,.3.286l.04,0a.449.449,0,0,0,.354-.245.183.183,0,1,0-.3-.2A.542.542,0,0,1,293.945,190.947Z" transform="translate(-283.455 -189.134)" fill="#f5f5f5"/>
    <path id="Path_11598" data-name="Path 11598" d="M204.578,170.83c0-.781-.034-1.515-.082-2.157a9.28,9.28,0,0,1,.643,1.305.183.183,0,0,0,.172.119.185.185,0,0,0,.064-.012.183.183,0,0,0,.107-.236,12.136,12.136,0,0,0-1.06-2.009c-.1-.987-.212-1.614-.214-1.625a.183.183,0,0,0-.361.065c0,.008.059.331.128.874-.141-.209-.272-.4-.381-.553l.009,0a.183.183,0,1,0,.116-.348l-.55-.183a.181.181,0,0,0-.233.123.4.4,0,0,0-.382-.092.312.312,0,0,0-.175.326,1.656,1.656,0,0,0,.126.519c.108.306.175.53.061.638a.2.2,0,0,1-.188.066c-.113-.029-.225-.179-.3-.4a.174.174,0,0,0-.015-.025,3.116,3.116,0,0,0-.056-1.014.183.183,0,1,0-.359.072,1.745,1.745,0,0,1-.1,1.306.329.329,0,0,1-.274.124.105.105,0,0,1-.088-.041,1.766,1.766,0,0,1-.1-1.033.183.183,0,0,0-.181-.209c-.315,0-.435.359-.54.675-.046.139-.132.4-.193.425-.111,0-.183-.326-.183-.55a.183.183,0,0,0-.183-.183h0a.183.183,0,0,0-.183.183c0,.423.144.916.55.916.3,0,.425-.329.527-.635a1.149,1.149,0,0,0,.208.651.47.47,0,0,0,.365.167.7.7,0,0,0,.557-.258.842.842,0,0,0,.068-.1.684.684,0,0,0,.384.288.529.529,0,0,0,.129.016.581.581,0,0,0,.4-.171.536.536,0,0,0,.061-.074.494.494,0,0,0,.135.02.741.741,0,0,0,.38-.117.183.183,0,0,0-.2-.309.389.389,0,0,1-.207.055,1.89,1.89,0,0,0-.139-.6,2.554,2.554,0,0,1-.095-.306l.043.039a.183.183,0,0,0,.259,0,.177.177,0,0,0,.027-.04c.19.262.581.812.983,1.445.077.779.144,1.773.144,2.863a.183.183,0,0,0,.367,0Z" transform="translate(-194.448 -165.688)" fill="#f5f5f5"/>
    <path id="Path_11599" data-name="Path 11599" d="M293.769,166.808a.183.183,0,0,0,.367,0,1.869,1.869,0,0,0-.2-.632.183.183,0,1,0-.328.164A1.629,1.629,0,0,1,293.769,166.808Z" transform="translate(-283.456 -165.697)" fill="#f5f5f5"/>
    <path id="Path_11600" data-name="Path 11600" d="M263.268,249.975a.183.183,0,0,0-.246.081.522.522,0,0,1-.076.109,1.025,1.025,0,0,1,.048-.339.183.183,0,0,0-.3-.183l-.366.366a.183.183,0,1,0,.259.259l.009-.009a.379.379,0,0,0,.1.193.335.335,0,0,0,.238.105.328.328,0,0,0,.05,0,.6.6,0,0,0,.371-.332A.183.183,0,0,0,263.268,249.975Z" transform="translate(-253.789 -244.813)" fill="#f5f5f5"/>
    <path id="Path_11601" data-name="Path 11601" d="M170.89,205.644H169.6q.017-.068.035-.13c.515-.107.821-.273.911-.5a.41.41,0,0,0-.069-.411.454.454,0,0,0-.463-.2c-.26.053-.492.333-.659.783a2.106,2.106,0,0,0-1.058.458,2.84,2.84,0,0,0-.38-1.218.183.183,0,1,0-.3.2,2.646,2.646,0,0,1,.336,1.364,1.45,1.45,0,0,1-1.1,1.466c-.206,0-.3-.245-.335-.451a2.1,2.1,0,0,0,.88-.97,1.457,1.457,0,0,0-.122-.993l-.014-.032.011.011a.183.183,0,1,0,.259-.259c-.107-.107-.315-.276-.5-.2a.312.312,0,0,0-.175.326.779.779,0,0,0,.085.295,1.108,1.108,0,0,1,.1.761,1.551,1.551,0,0,1-.6.662.18.18,0,0,0-.139-.067h0a.183.183,0,0,0-.183.183c0,.033,0,.068,0,.1a9.641,9.641,0,0,1-1.179.645.183.183,0,0,0,.076.35.181.181,0,0,0,.076-.016,10.561,10.561,0,0,0,1.094-.586.713.713,0,0,0,.662.6,1.557,1.557,0,0,0,1.226-.9,1.066,1.066,0,0,0,.122.175,2.065,2.065,0,0,0,1.4.538.183.183,0,0,0,.013-.366.392.392,0,0,1-.229-.111.314.314,0,0,1-.06-.241c.019-.226.747-.395,1.389-.4a.184.184,0,0,0,.17-.122l.183-.515a.183.183,0,0,0-.172-.245Zm-.8-.875.014,0c.018,0,.045.009.082.058.007.009.029.041.024.055-.021.052-.148.138-.411.215C169.91,204.869,170.024,204.781,170.086,204.769Zm-1.107,2.409a1.122,1.122,0,0,1-.507-.308.779.779,0,0,1-.163-.645.542.542,0,0,1,.038-.078c.258-.024.947.078,1,.275a.615.615,0,0,0-.387.478A.772.772,0,0,0,168.979,207.178Z" transform="translate(-161.481 -201.956)" fill="#f5f5f5"/>
    <path id="Path_11602" data-name="Path 11602" d="M291.564,166.745l-.183-.55a.183.183,0,0,0-.356.076c.126,1.265.366,3.731.366,4.013,0,.254-.452.754-1.181,1.119a.183.183,0,1,0,.164.328c.667-.333,1.384-.928,1.384-1.447,0-.271-.187-2.219-.295-3.313A.184.184,0,0,0,291.564,166.745Z" transform="translate(-280.16 -165.692)" fill="#f5f5f5"/>
    <path id="Path_11603" data-name="Path 11603" d="M335.949,194.119a.183.183,0,0,0,.307-.175.926.926,0,0,1-.026-.356.186.186,0,0,0,.19-.157.183.183,0,0,0-.155-.207.331.331,0,0,0-.3.1.419.419,0,0,0-.092.2l-.212-.212a.183.183,0,0,0-.259.259Z" transform="translate(-323.016 -191.412)" fill="#f5f5f5"/>
    <path id="Path_11604" data-name="Path 11604" d="M340.892,213.3l-.687.492a.183.183,0,0,0,.214.3l.687-.492a.183.183,0,1,0-.214-.3Z" transform="translate(-327.547 -210.4)" fill="#f5f5f5"/>
    <path id="Path_11605" data-name="Path 11605" d="M352.781,225.733a.183.183,0,0,0,.016.243.509.509,0,0,1,.037.264.183.183,0,0,0,.177.19h.007a.183.183,0,0,0,.183-.177c.013-.374-.109-.511-.162-.552A.183.183,0,0,0,352.781,225.733Z" transform="translate(-339.497 -222.146)" fill="#f5f5f5"/>
    <path id="Path_11606" data-name="Path 11606" d="M324.71,170.635a.183.183,0,0,0,.183-.183c0-.27-.014-.572-.037-.886a6.683,6.683,0,0,1,.429.8.183.183,0,0,0,.169.111.18.18,0,0,0,.072-.015.183.183,0,0,0,.1-.241,10.086,10.086,0,0,0-.838-1.446c-.072-.673-.166-1.332-.239-1.8a.177.177,0,0,0,.114-.029.181.181,0,0,0,.081-.166.177.177,0,0,0,.02.053.667.667,0,0,1,.067.449.183.183,0,0,0,.142.216.192.192,0,0,0,.037,0,.183.183,0,0,0,.179-.146,1.039,1.039,0,0,0-.116-.72.184.184,0,0,0-.253-.056.181.181,0,0,0-.082.166.178.178,0,0,0-.021-.053l-.309-.481a.183.183,0,0,0-.335.131c0,.014.143.819.267,1.788-.141-.2-.281-.392-.417-.577-.022-.277-.044-.534-.064-.746l.03-.012a.183.183,0,0,0,.082-.246l-.183-.366a.183.183,0,0,0-.346.1c.022.219.045.461.067.715-.116-.153-.223-.293-.315-.411a.183.183,0,0,0-.037-.3l-.366-.183a.183.183,0,0,0-.225.278c.01.012.461.578,1,1.308a14.729,14.729,0,0,1,.068,2.734c-.016.048-.044.105-.071.107-.111.015-.375-.232-.508-.5a.255.255,0,0,0-.245-.166c-.2.012-.274.229-.413.622a2.579,2.579,0,0,1-.364.776,2.081,2.081,0,0,1-.228-.721.182.182,0,0,0,.354-.062c0-.273-.191-2.355-.3-3.5a.183.183,0,0,0,.105-.228l-.183-.55a.183.183,0,0,0-.356.075c.125,1.307.358,3.832.365,4.181l0-.009a.183.183,0,1,0-.363.052c.053.375.19,1.019.505,1.123a.306.306,0,0,0,.1.016.36.36,0,0,0,.258-.12,2.643,2.643,0,0,0,.454-.916c.027-.076.059-.166.089-.243.168.246.461.551.759.527a.45.45,0,0,0,.392-.357,10.323,10.323,0,0,0-.007-2.288c.154.216.309.438.456.657.057.549.1,1.1.1,1.55A.183.183,0,0,0,324.71,170.635Z" transform="translate(-309.827 -165.699)" fill="#f5f5f5"/>
    <path id="Path_11607" data-name="Path 11607" d="M382.691,170.08c-.13-.967-.311-2.087-.425-2.775a.18.18,0,0,0,.154-.033.183.183,0,0,0,.035-.257l-.332-.435a.183.183,0,0,0-.326.143c0,.019.33,1.9.532,3.406a1.718,1.718,0,0,1-.3,1.375.811.811,0,0,1-.672.251.183.183,0,1,0-.023.366c.031,0,.061,0,.092,0a1.156,1.156,0,0,0,.872-.369A2.046,2.046,0,0,0,382.691,170.08Z" transform="translate(-366.417 -166.107)" fill="#f5f5f5"/>
    <path id="Path_11608" data-name="Path 11608" d="M371.063,256.19a.186.186,0,0,0,.009.258.077.077,0,0,1,.022.038.086.086,0,0,1-.028.041.183.183,0,1,0,.259.259.416.416,0,0,0,.135-.313.436.436,0,0,0-.144-.3A.182.182,0,0,0,371.063,256.19Z" transform="translate(-356.805 -251.009)" fill="#f5f5f5"/>
    <path id="Path_11609" data-name="Path 11609" d="M155.319,326.986h-1.283V326.8a.183.183,0,1,0-.367,0v.183h-9.712a2.558,2.558,0,0,0,1.649.55h8.063v.366a.183.183,0,0,0,.183.183h1.466a.55.55,0,1,0,0-1.1Zm0,.733h-1.283v-.183H155.5l-.033-.1a.178.178,0,0,1,.033.1A.183.183,0,0,1,155.319,327.72Z" transform="translate(-141.707 -317.787)" fill="#f5f5f5"/>
  </g>
</svg>
