<svg id="united_states" xmlns="http://www.w3.org/2000/svg" width="22.355" height="14.39" viewBox="0 0 22.355 14.39">
  <path id="Path_16890" data-name="Path 16890" d="M20.681,88.276H1.674A1.66,1.66,0,0,0,0,89.921v11.1a1.66,1.66,0,0,0,1.674,1.645H20.681a1.66,1.66,0,0,0,1.674-1.645v-11.1A1.66,1.66,0,0,0,20.681,88.276Z" transform="translate(0 -88.276)" fill="#f5f5f5"/>
  <g id="Group_16771" data-name="Group 16771" transform="translate(0 0)">
    <path id="Path_16891" data-name="Path 16891" d="M2.109,89.383H24.283A1.673,1.673,0,0,0,22.7,88.276H3.691A1.673,1.673,0,0,0,2.109,89.383Z" transform="translate(-2.019 -88.276)" fill="#ff4b55"/>
    <rect id="Rectangle_4103" data-name="Rectangle 4103" width="22.355" height="1.107" transform="translate(0 4.428)" fill="#ff4b55"/>
    <rect id="Rectangle_4104" data-name="Rectangle 4104" width="22.355" height="1.107" transform="translate(0 2.214)" fill="#ff4b55"/>
    <path id="Path_16892" data-name="Path 16892" d="M0,243.826a.382.382,0,0,0,.385.379h21.97V243.1H0Z" transform="translate(0 -236.456)" fill="#ff4b55"/>
    <rect id="Rectangle_4105" data-name="Rectangle 4105" width="22.355" height="1.107" transform="translate(0 11.07)" fill="#ff4b55"/>
    <path id="Path_16893" data-name="Path 16893" d="M24.283,397.92H2.109a1.673,1.673,0,0,0,1.582,1.107H22.7A1.673,1.673,0,0,0,24.283,397.92Z" transform="translate(-2.019 -384.637)" fill="#ff4b55"/>
    <rect id="Rectangle_4106" data-name="Rectangle 4106" width="22.355" height="1.107" transform="translate(0 8.856)" fill="#ff4b55"/>
  </g>
  <path id="Path_16894" data-name="Path 16894" d="M.379,96.024H9.846a.379.379,0,0,0,.379-.379V88.654a.379.379,0,0,0-.379-.379h-8.2A1.645,1.645,0,0,0,0,89.92v5.725A.379.379,0,0,0,.379,96.024Z" transform="translate(0 -88.275)" fill="#41479b"/>
  <g id="Group_16772" data-name="Group 16772" transform="translate(0.611 0.845)">
    <path id="Path_16895" data-name="Path 16895" d="M14.7,107.992l.084.251.265,0a.036.036,0,0,1,.021.064l-.213.157.08.253a.036.036,0,0,1-.055.04l-.216-.154-.216.154a.036.036,0,0,1-.055-.04l.08-.253-.213-.157a.036.036,0,0,1,.021-.064l.265,0,.084-.251A.036.036,0,0,1,14.7,107.992Z" transform="translate(-14.253 -107.968)" fill="#f5f5f5"/>
    <path id="Path_16896" data-name="Path 16896" d="M14.7,138.647l.084.251.265,0a.036.036,0,0,1,.021.064l-.213.157.08.253a.036.036,0,0,1-.055.04l-.216-.154-.216.154a.036.036,0,0,1-.055-.04l.08-.253-.213-.157a.036.036,0,0,1,.021-.064l.265,0,.084-.251A.036.036,0,0,1,14.7,138.647Z" transform="translate(-14.253 -137.308)" fill="#f5f5f5"/>
    <path id="Path_16897" data-name="Path 16897" d="M14.7,169.3l.084.251.265,0a.036.036,0,0,1,.021.064l-.213.157.08.253a.036.036,0,0,1-.055.04l-.216-.154-.216.154a.036.036,0,0,1-.055-.04l.08-.253-.213-.157a.036.036,0,0,1,.021-.064l.265,0,.084-.251A.036.036,0,0,1,14.7,169.3Z" transform="translate(-14.253 -166.647)" fill="#f5f5f5"/>
    <path id="Path_16898" data-name="Path 16898" d="M14.7,199.955l.084.251.265,0a.036.036,0,0,1,.021.064l-.213.157.08.253a.036.036,0,0,1-.055.04l-.216-.154-.216.154a.036.036,0,0,1-.055-.04l.08-.253-.213-.157a.036.036,0,0,1,.021-.064l.265,0,.084-.251A.036.036,0,0,1,14.7,199.955Z" transform="translate(-14.253 -195.986)" fill="#f5f5f5"/>
    <path id="Path_16899" data-name="Path 16899" d="M14.7,230.61l.084.251.265,0a.036.036,0,0,1,.021.064l-.213.157.08.253a.036.036,0,0,1-.055.04l-.216-.154-.216.154a.036.036,0,0,1-.055-.04l.08-.253-.213-.157a.036.036,0,0,1,.021-.064l.265,0,.084-.251A.036.036,0,0,1,14.7,230.61Z" transform="translate(-14.253 -225.325)" fill="#f5f5f5"/>
    <path id="Path_16900" data-name="Path 16900" d="M38.5,123.022l.084.251.265,0a.036.036,0,0,1,.021.064l-.213.157.08.253a.036.036,0,0,1-.055.04l-.216-.154-.216.154a.036.036,0,0,1-.055-.04l.08-.253-.213-.157a.036.036,0,0,1,.021-.064l.265,0,.084-.251A.036.036,0,0,1,38.5,123.022Z" transform="translate(-37.025 -122.353)" fill="#f5f5f5"/>
    <path id="Path_16901" data-name="Path 16901" d="M38.5,153.676l.084.251.265,0a.036.036,0,0,1,.021.064l-.213.157.08.253a.036.036,0,0,1-.055.04l-.216-.154-.216.154a.036.036,0,0,1-.055-.04l.08-.253-.213-.157a.036.036,0,0,1,.021-.064l.265,0,.084-.251A.036.036,0,0,1,38.5,153.676Z" transform="translate(-37.025 -151.692)" fill="#f5f5f5"/>
    <path id="Path_16902" data-name="Path 16902" d="M38.5,184.33l.084.251.265,0a.036.036,0,0,1,.021.064l-.213.157.08.253a.036.036,0,0,1-.055.04l-.216-.154-.216.154a.036.036,0,0,1-.055-.04l.08-.253-.213-.157a.036.036,0,0,1,.021-.064l.265,0,.084-.251A.036.036,0,0,1,38.5,184.33Z" transform="translate(-37.025 -181.031)" fill="#f5f5f5"/>
    <path id="Path_16903" data-name="Path 16903" d="M38.5,214.985l.084.251.265,0a.036.036,0,0,1,.021.064l-.213.157.08.253a.036.036,0,0,1-.055.04l-.216-.154-.216.154a.036.036,0,0,1-.055-.04l.08-.253-.213-.157a.036.036,0,0,1,.021-.064l.265,0,.084-.251A.036.036,0,0,1,38.5,214.985Z" transform="translate(-37.025 -210.371)" fill="#f5f5f5"/>
    <path id="Path_16904" data-name="Path 16904" d="M62.291,107.992l.084.251.265,0a.036.036,0,0,1,.021.064l-.213.157.08.253a.036.036,0,0,1-.055.04l-.216-.154-.216.154a.036.036,0,0,1-.055-.04l.08-.253-.213-.157a.036.036,0,0,1,.021-.064l.265,0,.084-.251A.036.036,0,0,1,62.291,107.992Z" transform="translate(-59.797 -107.968)" fill="#f5f5f5"/>
    <path id="Path_16905" data-name="Path 16905" d="M62.291,138.647l.084.251.265,0a.036.036,0,0,1,.021.064l-.213.157.08.253a.036.036,0,0,1-.055.04l-.216-.154-.216.154a.036.036,0,0,1-.055-.04l.08-.253-.213-.157a.036.036,0,0,1,.021-.064l.265,0,.084-.251A.036.036,0,0,1,62.291,138.647Z" transform="translate(-59.797 -137.307)" fill="#f5f5f5"/>
    <path id="Path_16906" data-name="Path 16906" d="M62.291,169.3l.084.251.265,0a.036.036,0,0,1,.021.064l-.213.157.08.253a.036.036,0,0,1-.055.04l-.216-.154-.216.154a.036.036,0,0,1-.055-.04l.08-.253-.213-.157a.036.036,0,0,1,.021-.064l.265,0,.084-.251A.036.036,0,0,1,62.291,169.3Z" transform="translate(-59.797 -166.647)" fill="#f5f5f5"/>
    <path id="Path_16907" data-name="Path 16907" d="M62.291,199.955l.084.251.265,0a.036.036,0,0,1,.021.064l-.213.157.08.253a.036.036,0,0,1-.055.04l-.216-.154-.216.154a.036.036,0,0,1-.055-.04l.08-.253-.213-.157a.036.036,0,0,1,.021-.064l.265,0,.084-.251A.036.036,0,0,1,62.291,199.955Z" transform="translate(-59.797 -195.986)" fill="#f5f5f5"/>
    <path id="Path_16908" data-name="Path 16908" d="M62.291,230.61l.084.251.265,0a.036.036,0,0,1,.021.064l-.213.157.08.253a.036.036,0,0,1-.055.04l-.216-.154-.216.154a.036.036,0,0,1-.055-.04l.08-.253-.213-.157a.036.036,0,0,1,.021-.064l.265,0,.084-.251A.036.036,0,0,1,62.291,230.61Z" transform="translate(-59.797 -225.325)" fill="#f5f5f5"/>
    <path id="Path_16909" data-name="Path 16909" d="M86.085,123.022l.084.251.265,0a.036.036,0,0,1,.021.064l-.213.157.08.253a.036.036,0,0,1-.055.04l-.216-.154-.216.154a.036.036,0,0,1-.055-.04l.08-.253-.213-.157a.036.036,0,0,1,.021-.064l.265,0,.084-.251A.036.036,0,0,1,86.085,123.022Z" transform="translate(-82.571 -122.353)" fill="#f5f5f5"/>
    <path id="Path_16910" data-name="Path 16910" d="M86.085,153.676l.084.251.265,0a.036.036,0,0,1,.021.064l-.213.157.08.253a.036.036,0,0,1-.055.04l-.216-.154-.216.154a.036.036,0,0,1-.055-.04l.08-.253-.213-.157a.036.036,0,0,1,.021-.064l.265,0,.084-.251A.036.036,0,0,1,86.085,153.676Z" transform="translate(-82.571 -151.692)" fill="#f5f5f5"/>
    <path id="Path_16911" data-name="Path 16911" d="M86.085,184.33l.084.251.265,0a.036.036,0,0,1,.021.064l-.213.157.08.253a.036.036,0,0,1-.055.04l-.216-.154-.216.154a.036.036,0,0,1-.055-.04l.08-.253-.213-.157a.036.036,0,0,1,.021-.064l.265,0,.084-.251A.036.036,0,0,1,86.085,184.33Z" transform="translate(-82.571 -181.031)" fill="#f5f5f5"/>
    <path id="Path_16912" data-name="Path 16912" d="M86.085,214.985l.084.251.265,0a.036.036,0,0,1,.021.064l-.213.157.08.253a.036.036,0,0,1-.055.04l-.216-.154-.216.154a.036.036,0,0,1-.055-.04l.08-.253-.213-.157a.036.036,0,0,1,.021-.064l.265,0,.084-.251A.036.036,0,0,1,86.085,214.985Z" transform="translate(-82.571 -210.371)" fill="#f5f5f5"/>
    <path id="Path_16913" data-name="Path 16913" d="M109.877,107.992l.084.251.265,0a.036.036,0,0,1,.021.064l-.213.157.08.253a.036.036,0,0,1-.055.04l-.216-.154-.216.154a.036.036,0,0,1-.055-.04l.08-.253-.213-.157a.036.036,0,0,1,.021-.064l.265,0,.084-.251A.036.036,0,0,1,109.877,107.992Z" transform="translate(-105.342 -107.968)" fill="#f5f5f5"/>
    <path id="Path_16914" data-name="Path 16914" d="M109.877,138.647l.084.251.265,0a.036.036,0,0,1,.021.064l-.213.157.08.253a.036.036,0,0,1-.055.04l-.216-.154-.216.154a.036.036,0,0,1-.055-.04l.08-.253-.213-.157a.036.036,0,0,1,.021-.064l.265,0,.084-.251A.036.036,0,0,1,109.877,138.647Z" transform="translate(-105.342 -137.307)" fill="#f5f5f5"/>
    <path id="Path_16915" data-name="Path 16915" d="M109.877,169.3l.084.251.265,0a.036.036,0,0,1,.021.064l-.213.157.08.253a.036.036,0,0,1-.055.04l-.216-.154-.216.154a.036.036,0,0,1-.055-.04l.08-.253-.213-.157a.036.036,0,0,1,.021-.064l.265,0,.084-.251A.036.036,0,0,1,109.877,169.3Z" transform="translate(-105.342 -166.647)" fill="#f5f5f5"/>
    <path id="Path_16916" data-name="Path 16916" d="M109.877,199.955l.084.251.265,0a.036.036,0,0,1,.021.064l-.213.157.08.253a.036.036,0,0,1-.055.04l-.216-.154-.216.154a.036.036,0,0,1-.055-.04l.08-.253-.213-.157a.036.036,0,0,1,.021-.064l.265,0,.084-.251A.036.036,0,0,1,109.877,199.955Z" transform="translate(-105.342 -195.986)" fill="#f5f5f5"/>
    <path id="Path_16917" data-name="Path 16917" d="M109.877,230.61l.084.251.265,0a.036.036,0,0,1,.021.064l-.213.157.08.253a.036.036,0,0,1-.055.04l-.216-.154-.216.154a.036.036,0,0,1-.055-.04l.08-.253-.213-.157a.036.036,0,0,1,.021-.064l.265,0,.084-.251A.036.036,0,0,1,109.877,230.61Z" transform="translate(-105.342 -225.325)" fill="#f5f5f5"/>
    <path id="Path_16918" data-name="Path 16918" d="M133.671,123.022l.084.251.265,0a.036.036,0,0,1,.021.064l-.213.157.08.253a.036.036,0,0,1-.055.04l-.216-.154-.216.154a.036.036,0,0,1-.055-.04l.08-.253-.213-.157a.036.036,0,0,1,.021-.064l.265,0,.084-.251A.036.036,0,0,1,133.671,123.022Z" transform="translate(-128.115 -122.353)" fill="#f5f5f5"/>
    <path id="Path_16919" data-name="Path 16919" d="M133.671,153.676l.084.251.265,0a.036.036,0,0,1,.021.064l-.213.157.08.253a.036.036,0,0,1-.055.04l-.216-.154-.216.154a.036.036,0,0,1-.055-.04l.08-.253-.213-.157a.036.036,0,0,1,.021-.064l.265,0,.084-.251A.036.036,0,0,1,133.671,153.676Z" transform="translate(-128.115 -151.692)" fill="#f5f5f5"/>
    <path id="Path_16920" data-name="Path 16920" d="M133.671,184.33l.084.251.265,0a.036.036,0,0,1,.021.064l-.213.157.08.253a.036.036,0,0,1-.055.04l-.216-.154-.216.154a.036.036,0,0,1-.055-.04l.08-.253-.213-.157a.036.036,0,0,1,.021-.064l.265,0,.084-.251A.036.036,0,0,1,133.671,184.33Z" transform="translate(-128.115 -181.031)" fill="#f5f5f5"/>
    <path id="Path_16921" data-name="Path 16921" d="M133.671,214.985l.084.251.265,0a.036.036,0,0,1,.021.064l-.213.157.08.253a.036.036,0,0,1-.055.04l-.216-.154-.216.154a.036.036,0,0,1-.055-.04l.08-.253-.213-.157a.036.036,0,0,1,.021-.064l.265,0,.084-.251A.036.036,0,0,1,133.671,214.985Z" transform="translate(-128.115 -210.371)" fill="#f5f5f5"/>
    <path id="Path_16922" data-name="Path 16922" d="M157.465,107.992l.084.251.265,0a.036.036,0,0,1,.021.064l-.213.157.08.253a.036.036,0,0,1-.055.04l-.216-.154-.216.154a.036.036,0,0,1-.055-.04l.08-.253-.213-.157a.036.036,0,0,1,.021-.064l.265,0,.084-.251A.036.036,0,0,1,157.465,107.992Z" transform="translate(-150.888 -107.968)" fill="#f5f5f5"/>
    <path id="Path_16923" data-name="Path 16923" d="M157.465,138.647l.084.251.265,0a.036.036,0,0,1,.021.064l-.213.157.08.253a.036.036,0,0,1-.055.04l-.216-.154-.216.154a.036.036,0,0,1-.055-.04l.08-.253-.213-.157a.036.036,0,0,1,.021-.064l.265,0,.084-.251A.036.036,0,0,1,157.465,138.647Z" transform="translate(-150.888 -137.307)" fill="#f5f5f5"/>
    <path id="Path_16924" data-name="Path 16924" d="M157.465,169.3l.084.251.265,0a.036.036,0,0,1,.021.064l-.213.157.08.253a.036.036,0,0,1-.055.04l-.216-.154-.216.154a.036.036,0,0,1-.055-.04l.08-.253-.213-.157a.036.036,0,0,1,.021-.064l.265,0,.084-.251A.036.036,0,0,1,157.465,169.3Z" transform="translate(-150.888 -166.647)" fill="#f5f5f5"/>
    <path id="Path_16925" data-name="Path 16925" d="M157.465,199.955l.084.251.265,0a.036.036,0,0,1,.021.064l-.213.157.08.253a.036.036,0,0,1-.055.04l-.216-.154-.216.154a.036.036,0,0,1-.055-.04l.08-.253-.213-.157a.036.036,0,0,1,.021-.064l.265,0,.084-.251A.036.036,0,0,1,157.465,199.955Z" transform="translate(-150.888 -195.986)" fill="#f5f5f5"/>
    <path id="Path_16926" data-name="Path 16926" d="M157.465,230.61l.084.251.265,0a.036.036,0,0,1,.021.064l-.213.157.08.253a.036.036,0,0,1-.055.04l-.216-.154-.216.154a.036.036,0,0,1-.055-.04l.08-.253-.213-.157a.036.036,0,0,1,.021-.064l.265,0,.084-.251A.036.036,0,0,1,157.465,230.61Z" transform="translate(-150.888 -225.325)" fill="#f5f5f5"/>
    <path id="Path_16927" data-name="Path 16927" d="M181.258,123.022l.084.251.265,0a.036.036,0,0,1,.021.064l-.213.157.08.253a.036.036,0,0,1-.055.04l-.216-.154-.216.154a.036.036,0,0,1-.055-.04l.08-.253-.213-.157a.036.036,0,0,1,.021-.064l.265,0,.084-.251A.036.036,0,0,1,181.258,123.022Z" transform="translate(-173.661 -122.353)" fill="#f5f5f5"/>
    <path id="Path_16928" data-name="Path 16928" d="M181.258,153.676l.084.251.265,0a.036.036,0,0,1,.021.064l-.213.157.08.253a.036.036,0,0,1-.055.04l-.216-.154-.216.154a.036.036,0,0,1-.055-.04l.08-.253-.213-.157a.036.036,0,0,1,.021-.064l.265,0,.084-.251A.036.036,0,0,1,181.258,153.676Z" transform="translate(-173.661 -151.692)" fill="#f5f5f5"/>
    <path id="Path_16929" data-name="Path 16929" d="M181.258,184.33l.084.251.265,0a.036.036,0,0,1,.021.064l-.213.157.08.253a.036.036,0,0,1-.055.04l-.216-.154-.216.154a.036.036,0,0,1-.055-.04l.08-.253-.213-.157a.036.036,0,0,1,.021-.064l.265,0,.084-.251A.036.036,0,0,1,181.258,184.33Z" transform="translate(-173.661 -181.031)" fill="#f5f5f5"/>
    <path id="Path_16930" data-name="Path 16930" d="M181.258,214.985l.084.251.265,0a.036.036,0,0,1,.021.064l-.213.157.08.253a.036.036,0,0,1-.055.04l-.216-.154-.216.154a.036.036,0,0,1-.055-.04l.08-.253-.213-.157a.036.036,0,0,1,.021-.064l.265,0,.084-.251A.036.036,0,0,1,181.258,214.985Z" transform="translate(-173.661 -210.371)" fill="#f5f5f5"/>
    <path id="Path_16931" data-name="Path 16931" d="M205.052,107.992l.084.251.265,0a.036.036,0,0,1,.021.064l-.213.157.08.253a.036.036,0,0,1-.055.04l-.216-.154-.216.154a.036.036,0,0,1-.055-.04l.08-.253-.213-.157a.036.036,0,0,1,.021-.064l.265,0,.084-.251A.036.036,0,0,1,205.052,107.992Z" transform="translate(-196.434 -107.968)" fill="#f5f5f5"/>
    <path id="Path_16932" data-name="Path 16932" d="M205.052,138.647l.084.251.265,0a.036.036,0,0,1,.021.064l-.213.157.08.253a.036.036,0,0,1-.055.04l-.216-.154-.216.154a.036.036,0,0,1-.055-.04l.08-.253-.213-.157a.036.036,0,0,1,.021-.064l.265,0,.084-.251A.036.036,0,0,1,205.052,138.647Z" transform="translate(-196.434 -137.307)" fill="#f5f5f5"/>
    <path id="Path_16933" data-name="Path 16933" d="M205.052,169.3l.084.251.265,0a.036.036,0,0,1,.021.064l-.213.157.08.253a.036.036,0,0,1-.055.04l-.216-.154-.216.154a.036.036,0,0,1-.055-.04l.08-.253-.213-.157a.036.036,0,0,1,.021-.064l.265,0,.084-.251A.036.036,0,0,1,205.052,169.3Z" transform="translate(-196.434 -166.647)" fill="#f5f5f5"/>
    <path id="Path_16934" data-name="Path 16934" d="M205.052,199.955l.084.251.265,0a.036.036,0,0,1,.021.064l-.213.157.08.253a.036.036,0,0,1-.055.04l-.216-.154-.216.154a.036.036,0,0,1-.055-.04l.08-.253-.213-.157a.036.036,0,0,1,.021-.064l.265,0,.084-.251A.036.036,0,0,1,205.052,199.955Z" transform="translate(-196.434 -195.986)" fill="#f5f5f5"/>
    <path id="Path_16935" data-name="Path 16935" d="M205.052,230.61l.084.251.265,0a.036.036,0,0,1,.021.064l-.213.157.08.253a.036.036,0,0,1-.055.04l-.216-.154-.216.154a.036.036,0,0,1-.055-.04l.08-.253-.213-.157a.036.036,0,0,1,.021-.064l.265,0,.084-.251A.036.036,0,0,1,205.052,230.61Z" transform="translate(-196.434 -225.325)" fill="#f5f5f5"/>
  </g>
</svg>
