<svg xmlns="http://www.w3.org/2000/svg" xmlns:xlink="http://www.w3.org/1999/xlink" width="35.969" height="35.984" viewBox="0 0 35.969 35.984">
  <defs>
    <linearGradient id="linear-gradient" x1="0.133" y1="0.415" x2="1.042" y2="0.839" gradientUnits="objectBoundingBox">
      <stop offset="0" stop-color="#fff" stop-opacity="0.2"/>
      <stop offset="1" stop-color="#fff" stop-opacity="0"/>
    </linearGradient>
  </defs>
  <g id="user" transform="translate(-1 -0.984)">
    <circle id="Ellipse_7360" data-name="Ellipse 7360" cx="10" cy="10" r="10" transform="translate(8.984 0.984)" fill="#303c42"/>
    <circle id="Ellipse_7361" data-name="Ellipse 7361" cx="8" cy="8" r="8" transform="translate(10.984 2.984)" fill="#ffad1e"/>
    <path id="Path_48035" data-name="Path 48035" d="M32.945,17.687A31.441,31.441,0,0,0,18.984,14,31.441,31.441,0,0,0,5.024,17.687,7.356,7.356,0,0,0,1,24.248v1.2a3.273,3.273,0,0,0,3.27,3.27H33.7a3.273,3.273,0,0,0,3.27-3.27v-1.2A7.356,7.356,0,0,0,32.945,17.687Z" transform="translate(0 8.254)" fill="#303c42"/>
    <path id="Path_48036" data-name="Path 48036" d="M34.7,24.81a1.638,1.638,0,0,1-1.635,1.635H3.635A1.638,1.638,0,0,1,2,24.81v-1.2a5.729,5.729,0,0,1,3.136-5.108A29.817,29.817,0,0,1,18.349,15a29.794,29.794,0,0,1,13.214,3.507A5.725,5.725,0,0,1,34.7,23.613Z" transform="translate(0.635 8.889)" fill="#ffad1e"/>
    <path id="Path_48037" data-name="Path 48037" d="M11.81,11.81a8.184,8.184,0,0,1,8.175-8.175,8.1,8.1,0,0,1,4.882,1.658,8.148,8.148,0,1,0-11.4,11.4A8.1,8.1,0,0,1,11.81,11.81ZM6.771,28.4a29.8,29.8,0,0,1,13.214-3.507A29.8,29.8,0,0,1,33.2,28.4a5.828,5.828,0,0,1,.553.334,5.776,5.776,0,0,0-2.188-1.968,29.8,29.8,0,0,0-13.214-3.507A29.8,29.8,0,0,0,5.136,26.761,5.725,5.725,0,0,0,2,31.867v1.2A1.638,1.638,0,0,0,3.635,34.7V33.5A5.725,5.725,0,0,1,6.771,28.4Z" transform="translate(0.635 0.635)" fill="#fff" opacity="0.2"/>
    <path id="Path_48038" data-name="Path 48038" d="M18.984,20.619a9.81,9.81,0,1,0-9.81-9.81A9.82,9.82,0,0,0,18.984,20.619Zm13.961,5.322a31.441,31.441,0,0,0-13.961-3.687A31.441,31.441,0,0,0,5.024,25.941,7.356,7.356,0,0,0,1,32.5v1.2a3.273,3.273,0,0,0,3.27,3.27H33.7a3.273,3.273,0,0,0,3.27-3.27V32.5A7.356,7.356,0,0,0,32.945,25.941Z" transform="translate(0 0)" fill="url(#linear-gradient)"/>
  </g>
</svg>
