<svg id="write" xmlns="http://www.w3.org/2000/svg" width="14.05" height="16.701" viewBox="0 0 14.05 16.701">
  <path id="Path_48070" data-name="Path 48070" d="M9.565,14.038a1.186,1.186,0,0,0,.351-.05l3.005-.6a1.933,1.933,0,0,0,.885-.484l7.28-7.28a3,3,0,0,0,0-4.157L20.468.814a3.015,3.015,0,0,0-4.174,0l-7.28,7.3A2.005,2.005,0,0,0,8.53,9L7.9,12.034a1.7,1.7,0,0,0,1.67,2Zm.568-4.725,7.28-7.3a1.343,1.343,0,0,1,1.837,0l.634.634a1.3,1.3,0,0,1,0,1.92l-7.263,7.3-3.089.518Z" transform="translate(-7.875 0.025)" fill="#bcbcbc"/>
  <path id="Path_48071" data-name="Path 48071" d="M21.123,90.4H8.8a.754.754,0,0,0-.8.8.8.8,0,0,0,.8.8H21.057a.8.8,0,1,0,.067-1.6Z" transform="translate(-7.979 -75.302)" fill="#bcbcbc"/>
</svg>
